<?xml version="1.0" encoding="utf-8"?>
<!-- Generator: Adobe Illustrator 22.0.0, SVG Export Plug-In . SVG Version: 6.00 Build 0)  -->
<svg version="1.1" id="Layer_1" xmlns="http://www.w3.org/2000/svg" xmlns:xlink="http://www.w3.org/1999/xlink" x="0px" y="0px"
	 viewBox="0 0 1280 200" style="enable-background:new 0 0 1280 200;" xml:space="preserve">
<style type="text/css">
	.st0{fill:#FFE39C;}
	.st1{clip-path:url(#SVGID_2_);fill:#8071C9;}
	.st2{clip-path:url(#SVGID_2_);}
	.st3{fill:#4C40A0;}
	.st4{fill:#A290E0;}
	.st5{opacity:0.6;fill:#8679C9;}
	.st6{fill:#F7EEA1;}
	.st7{fill:#C1B97A;}
	.st8{fill:#F4DC31;}
	.st9{fill:#E6E1FF;}
	.st10{fill:#C5C0E2;}
	.st11{fill:#DD90CE;}
	.st12{fill:#BC71B2;}
	.st13{fill:#8F82CE;}
	.st14{fill:#C7C3E5;}
	.st15{fill:#FFFFFF;}
	.st16{fill:#1F1E21;}
	.st17{fill:#C176B6;}
	.st18{fill:#C6C1E5;}
	.st19{fill:#8071C9;}
	.st20{fill:#625CAD;}
	.st21{fill:#8478C1;}
	.st22{fill:#B569AA;}
	.st23{fill:url(#SVGID_3_);}
	.st24{fill:url(#SVGID_4_);}
	.st25{fill:url(#SVGID_5_);}
	.st26{fill:url(#SVGID_6_);}
	.st27{font-family:'Montserrat-ExtraBold';}
	.st28{font-size:97.9732px;}
	.st29{fill:url(#SVGID_7_);}
	.st30{fill:url(#SVGID_8_);}
	.st31{fill:#3078CE;}
	.st32{fill:url(#SVGID_9_);}
	.st33{font-size:22.8048px;}
	.st34{clip-path:url(#SVGID_15_);fill:#DD90CE;}
	.st35{clip-path:url(#SVGID_15_);}
	.st36{fill:#E5B7DF;}
	.st37{opacity:0.2;fill:#A52D94;}
	.st38{fill:#D5D1F2;}
	.st39{fill:#A52D94;}
	.st40{fill:#D1C569;}
	.st41{fill:#7D6FBC;}
	.st42{fill:#B24BA3;}
	.st43{fill:#CE7CC6;}
</style>
<rect class="st0" width="1280" height="200"/>
<g>
	<g>
		<defs>
			<path id="SVGID_1_" d="M1025.7,102.8c0,0,2.4,1.4,4.7,1.2c2.3-0.1,6.2-0.7,7.9-1.3c1.7-0.5,6.8-1.7,10-2.1
				c3.3-0.4,11.9-1.4,11.9-1.4l5.9-0.5l2.5-0.5c0,0,3.9-0.4,5.8-0.4c1.8,0,8.5-0.6,11.1-4.2l3.5,4.1c0,0,6.1,8,8.9,11.8
				c2.8,3.8,6.6,9.2,9.3,14.7l3.9,8c0,0-1.9,2.9-10.4,6.3c-8.5,3.4-19.9,5.7-19.9,5.7s-21.4,3.6-29.8,4.2c0,0-18.2,2-22.1,2.1
				c-3.9,0.1-11.2,0.7-12.6-0.3c0,0-0.5-7.2-0.5-9.1c0-1.9,0.7-12.2,2.4-18.8C1020.2,115.6,1024,104.4,1025.7,102.8z"/>
		</defs>
		<clipPath id="SVGID_2_">
			<use xlink:href="#SVGID_1_"  style="overflow:visible;"/>
		</clipPath>
		<path class="st1" d="M1025.7,102.8c0,0,2.4,1.4,4.7,1.2c2.3-0.1,6.2-0.7,7.9-1.3c1.7-0.5,6.8-1.7,10-2.1
			c3.3-0.4,11.9-1.4,11.9-1.4l5.9-0.5l2.5-0.5c0,0,3.9-0.4,5.8-0.4c1.8,0,8.5-0.6,11.1-4.2l3.5,4.1c0,0,6.7,7.9,9.6,11.7
			c2.8,3.8,6.3,9.2,9.1,14.7l3.9,7.7c0,0-1.8,3.6-10.4,7.1c-8.5,3.4-20.7,5.4-20.7,5.4s-21.1,3.7-29.4,4.3c0,0-18.1,2-22,2
			c-3.9,0.1-11.3,0.7-12.7-0.3c0,0-0.6-7.4-0.5-9.4c0-1.9,0.7-11.9,2.5-18.5C1020.2,115.6,1024,104.4,1025.7,102.8z"/>
		<g class="st2">
			<path class="st3" d="M1009.7,114.9c34.9,6.1,70.6-4.9,102.9-17c2.9-1.1,1.1-5.6-1.8-4.5c-31.6,11.9-66.4,22.7-100.4,16.7
				C1007.4,109.6,1006.7,114.3,1009.7,114.9L1009.7,114.9z"/>
		</g>
		<g class="st2">
			<path class="st3" d="M1010,130.8c18.2,3.6,37.2-1.2,55.3-3.7c18.7-2.5,38.3-5.3,55.4-13.7c2.8-1.4,1-5.8-1.8-4.5
				c-16.3,8.1-34.8,10.7-52.7,13.2c-18,2.5-37.3,7.5-55.4,3.9C1007.7,125.4,1007,130.2,1010,130.8L1010,130.8z"/>
		</g>
		<g class="st2">
			<path class="st3" d="M1004.5,146.4c23.3,0.7,46.2-2.6,69-7.4c21.1-4.5,42.8-9,62.5-18c2.8-1.3,1.1-5.8-1.8-4.5
				c-19.4,8.9-40.5,13-61.3,17.7c-22.1,5-45,8.1-67.7,7.5C1002.2,141.6,1001.4,146.3,1004.5,146.4L1004.5,146.4z"/>
		</g>
	</g>
	<path class="st4" d="M1021.1,91.6c0.2-0.1,4.8-1.1,4.8-1.1s7.6-1.2,9.1-1.6l7.3-1.6l12.7-1.2l9.9-1l9.4-1.4c0,0,6.8-1.8,10-0.2
		c0,0,4.7,1.3,1.1,10.4c0,0-0.7,3.1-8.7,4.3l-4.8,0.4l-5.4,0.7l-6.3,0.8l-5.3,0.4l-4.6,0.3l-6.2,1.2c0,0-10.4,2.7-13.3,2.7
		c-2.9,0.1-7.1-1.4-8.6-5.4C1020.7,95.1,1021.1,91.6,1021.1,91.6z"/>
	<path class="st5" d="M1062.1,95.1c-7.9,0.1-14.9,1.7-22.4,3.8c-6.3,1.7-12.3,1.5-18.2-1.1c0.1,0.5,0.3,1,0.5,1.4
		c1.5,4,5.7,5.5,8.6,5.4c2.9-0.1,13.3-2.7,13.3-2.7l6.2-1.2l4.6-0.3l5.3-0.4l6.3-0.8l5.4-0.7l4.8-0.4c8-1.1,8.7-4.3,8.7-4.3
		c0.8-2,1.1-3.6,1.3-4.9C1080.1,95,1070.6,95,1062.1,95.1z"/>
	<path class="st6" d="M1024.5,74.5c0,0,1.7-1.5,1.8-2c0,0,5.2,1.3,10.6,8.3c0,0,2.6,4.3,2.7,6.8l-4.5,1.2l-0.4-0.2
		c0,0-0.1-5.9-3.5-9L1024.5,74.5z"/>
	<path class="st7" d="M1036.9,80.8c-5.4-6.9-10.6-8.3-10.6-8.3c-0.1,0.3-0.6,0.9-1.1,1.4c5.8,1.9,12.2,7.6,13.4,14l1-0.3
		C1039.6,85.1,1036.9,80.8,1036.9,80.8z"/>
	<path class="st6" d="M1074.8,66.8c0,0-2.8,4.2-3.8,7.9c-1,3.7-0.8,8.7-0.6,9.6l-4.9,0.8c0,0-1.3-4.1-0.9-7c0.5-2.9,1.2-5.2,2.3-7.3
		c1.1-2.1,4.1-6.5,4.1-6.5S1072.9,67,1074.8,66.8z"/>
	<path class="st7" d="M1072.6,66c-1-0.7-1.7-1.7-1.7-1.7s-3,4.4-4.1,6.5c-1.1,2.1-1.9,4.4-2.3,7.3c-0.5,2.9,0.9,7,0.9,7l1.5-0.2
		C1066.4,77.4,1068.2,71,1072.6,66z"/>
	<path class="st8" d="M1073.9,63.8c0,0,1.1-3.2,0.4-4.2c-0.7-1-2.1-1.6-3-0.9c-1,0.8-1.7,4.4,0.9,7.1c0,0,2.6,2.6,6.5-0.6
		c0,0,3.1-3.3,0.8-4.1C1079.5,61.1,1076.9,60.6,1073.9,63.8z"/>
	<path class="st8" d="M1023.1,73c0,0-1.7-5.1,0-5.8c0,0,2.5-0.6,3.6,3.4c0,0,0.8,2-2.8,4.3c0,0-6.7,3.1-8.9-0.8
		C1015,74,1016.4,69.7,1023.1,73z"/>
	<path class="st9" d="M1017.1,75.8c0,0-11.1,5.6-12.6,7.2c-1.5,1.6-6.6,5.3-2,14.1c0,0,3.2,8.7,13.4,6.2c0,0,5.2-1.4,6.7-2.7
		c0,0-2.1-5.2-1.5-9.1c0,0,13-2.5,13.6-2.8c0,0,0.4-6.3-5.3-10.6l-4.9-3.6C1024.5,74.5,1021.5,76.8,1017.1,75.8z"/>
	<path class="st10" d="M1006.3,88.5c-0.1-2.7,0.6-5.4,1.7-7.8c-1.7,1-3,1.8-3.5,2.3c-1.5,1.6-6.6,5.3-2,14.1c0,0,2.9,7.7,11.6,6.5
		C1009.8,99.6,1006.5,94.7,1006.3,88.5z"/>
	<path class="st9" d="M1074.7,66.5c0,0-5.2,6.6-4.4,17.5c0,0,6.7-1.1,10.7-1c4,0,5.1,0.5,5.6,4.4c0.4,3.8,0.3,0.5,0.3,0.5
		s5.4,0.9,8.5-1.8c0,0,5-3.9,4.8-12.1c0,0-0.7-5.2-6.2-6.7c0,0-6.3-1-8.1-1.2c-1.8-0.2-6.6-1-6.6-1S1076.4,67,1074.7,66.5z"/>
	<path class="st10" d="M1095.7,67.9c-1.1,7.6-3.2,15.2-9.2,19.3c0,0.1,0,0.1,0,0.2c0.4,3.8,0.3,0.5,0.3,0.5s5.4,0.9,8.5-1.8
		c0,0,5-3.9,4.8-12.1C1100.2,73.9,1099.6,69.8,1095.7,67.9z"/>
	<path class="st9" d="M1029.3,73.6l3.2-0.3c0,0,3.9,5.1,10.4,4.9c0,0,2.9,0.4,6.3-5.4c0,0,2.7,5.6,9.3,3.9c0,0,2.9,0.4,4.8-7.3
		l5.3-2.3c0,0-3.4,4.6-4.2,10.9c0,0-0.3,4.6,0.9,7l-14.8,1.2c0,0-10.2,1.5-10.6,1.5c-0.4,0-0.7-1-0.7-1s-1-4.3-4.7-8.8
		C1034.7,78,1030.3,74.1,1029.3,73.6z"/>
	<path class="st11" d="M1032.5,73.4c0,0,4.4,5.3,10.1,4.9c0,0,3.8,0.5,6.6-5.4c0,0,3,5.5,9.3,3.9c0,0,3.1-0.3,4.8-7.3
		c0,0-11.9,3-15.7,3.3C1043.8,73,1032.5,73.4,1032.5,73.4z"/>
	<g>
		<path class="st12" d="M1047.6,74.6c-1.3,1-3.5,1.8-5.1,1.9c-3.8,0.1-6.6-0.9-9.7-2.8c1,1.1,4.9,5,9.9,4.6c0,0,3.4,0.5,6.1-4.5
			C1048.2,74.1,1047.7,74.5,1047.6,74.6z"/>
		<path class="st12" d="M1056,75.1c-3.1,0.1-4.7-0.7-6.5-2c0,0-0.1,0-0.1,0.1c0.8,1.2,3.7,4.9,9.1,3.6c0,0,2.5-0.3,4.3-5.4
			C1061,73.4,1058.7,75,1056,75.1z"/>
	</g>
	<path class="st4" d="M1016.5,150.1c0,0,5.1,1.6,33.5-1.2c0,0,30.1-3.4,41.6-7.3c0,0,14.2-3.2,19.6-9.5c0,0,7.2,5.7,11.8,10.9
		c0,0,6,6.3,6.5,6.7c0.5,0.4,5.6,3.7-0.4,9.2c0,0-1.5,1.3-5.2,0.7c0,0-5.7-3.3-10.1,0.6c0,0-5.5,5.8-9.5,6c-4,0.3-9.4-4.5-14-3.1
		c-4.7,1.3-12.2,8.3-14.2,8.8c-2,0.5-4.4,0.8-13.5-2.2c0,0-4.4-0.6-9.5,2.7c0,0-4.8,2.1-10.2-0.2c0,0-6.1-2.4-11.1-0.1
		c-5.1,2.3-7.4,2.9-9.8,2.8s-4.5-1.6-6.2-1.1c-1.7,0.5-5.7,2.4-6.7,2.5c-1,0.1-2.2-2.2-0.6-11.5L1016.5,150.1z"/>
	<path class="st13" d="M1114.7,155.1c-4.9,1.7-8.8,5.9-14.3,5.4c-5.9-0.6-9.2-4.8-15-0.6c-4.7,3.3-8.8,6.1-14.8,6.2
		c-3,0-6-0.7-8.9-0.3c-3.1,0.4-5.5,2-8.4,2.9c-6.3,1.9-10.1,0.2-15.8-2c-3.6-1.4-6.6,1.8-9.9,2.8c-2.8,0.9-5.4,1.5-8.3,1.1
		c-4.1-0.5-8.2,0.2-11.5,2.4c0.1,2.7,0.8,3.5,1.3,3.5c1-0.1,4.9-2,6.7-2.5c1.7-0.5,3.8,1,6.2,1.1c2.4,0.1,4.8-0.5,9.8-2.8
		c5.1-2.3,11.1,0.1,11.1,0.1c5.4,2.3,10.2,0.2,10.2,0.2c5.1-3.3,9.5-2.7,9.5-2.7c9,3,11.4,2.8,13.5,2.2c2-0.5,9.5-7.5,14.2-8.8
		c4.7-1.3,10,3.4,14,3.1c4-0.3,9.5-6,9.5-6c4.4-3.9,10.1-0.6,10.1-0.6c3.8,0.6,5.2-0.7,5.2-0.7c0.2-0.1,0.3-0.3,0.4-0.4
		C1124.8,156.7,1119.4,153.5,1114.7,155.1z"/>
	<path class="st9" d="M1031.8,172.2c-0.5,0.3,1,6.6,4.5,6.5c3.5-0.1,11.1-1.1,13.2-1.2c2-0.1,8.7-2,11.9,4.5c0,0,0.9,9.7,10.5,7.6
		c0,0,7.8,0.2,8-6.9c0,0-0.7-5.5,3.4-8c4.1-2.5,11.8-2.7,13.3-4.1c1.5-1.4,2.8-1.4,3.6-4.9c0,0-3.3-2.9-8.5-2.8c0,0-3-0.5-9.9,5.3
		c0,0-3.1,4.1-8,4.1c-5,0.1-10.1-3.2-13.5-2.6c-3.3,0.6-8.9,3.8-11.4,3.9C1046.2,173.7,1038.2,169.1,1031.8,172.2z"/>
	<path class="st14" d="M1053.8,173.7c6.4-1.3,11.3,0.5,17.5,1.8c6.7,1.4,11.2-4,16.9-6.6c3.8-1.7,7.5-2.5,11.3-2.2
		c0.1-0.2,0.1-0.5,0.2-0.8c0,0-3.3-2.9-8.5-2.8c0,0-3-0.5-9.9,5.3c0,0-3.1,4.1-8,4.1c-5,0.1-10.1-3.2-13.5-2.6
		c-3.3,0.6-8.9,3.8-11.4,3.9c-2.5,0.2-10.4-4.5-16.9-1.4c-0.3,0.1,0,1.9,0.8,3.5C1039.9,178,1046.4,175.2,1053.8,173.7z"/>
	<path class="st4" d="M1077.8,187.8c0,0,9.9-0.4,16.8-7.8c0,0,5.1-4.7,5.2-12.3l-0.3-0.7c0,0-0.1,1.7-3,3.5c-3,1.8-8.4,1.8-10.3,2.7
		c-2,0.9-5.4,0.7-6.3,8.4C1079.8,181.7,1079.6,186.9,1077.8,187.8z"/>
	<path class="st4" d="M1035.7,178.7c0,0,5.9,0.2,8.4-0.7c2.4-0.9,10.1-1.5,12.9-0.1c2.8,1.4,3.6,1.9,5.7,8.8l1.8,2.3
		c0,0-2.5,1.1-10,0.2C1047,188.5,1040.2,184.9,1035.7,178.7z"/>
	<g>
		<path class="st15" d="M1025,95.9c0.6,0.8,1.3,1.4,2.1,2c0.6,0.5,1.4-0.5,0.8-0.9c-0.7-0.5-1.3-1.1-1.9-1.8
			C1025.5,94.5,1024.5,95.3,1025,95.9L1025,95.9z"/>
	</g>
	<g>
		<path class="st15" d="M1032.1,97.5c0.5-1,1.1-2.1,1.6-3.1c0.4-0.7-0.7-1.2-1.1-0.5c-0.5,1-1.1,2.1-1.6,3.1
			C1030.6,97.7,1031.7,98.2,1032.1,97.5L1032.1,97.5z"/>
	</g>
	<g>
		<path class="st15" d="M1036.2,94c0.9,0.6,1.6,1.3,2.2,2.1c0.5,0.6,1.5-0.1,1-0.7c-0.7-0.9-1.5-1.7-2.4-2.3
			C1036.3,92.6,1035.5,93.5,1036.2,94L1036.2,94z"/>
	</g>
	<g>
		<path class="st15" d="M1045.4,95.6c0.4-1.2,0.9-2.3,1.4-3.4c0.3-0.7-0.8-1.2-1.1-0.5c-0.5,1.1-1,2.2-1.4,3.4
			C1044.1,95.8,1045.1,96.3,1045.4,95.6L1045.4,95.6z"/>
	</g>
	<g>
		<path class="st15" d="M1051.1,91.8c1,0.5,1.6,1.4,2.1,2.3c0.4,0.7,1.3-0.1,1-0.7c-0.6-1.1-1.5-2.1-2.6-2.7
			C1050.9,90.3,1050.4,91.4,1051.1,91.8L1051.1,91.8z"/>
	</g>
	<g>
		<path class="st15" d="M1059.2,93.9c0.5-1,1.1-1.9,1.5-2.9c0.3-0.7-0.8-1.2-1.1-0.5c-0.4,1-1,1.9-1.5,2.9
			C1057.8,94.1,1058.9,94.6,1059.2,93.9L1059.2,93.9z"/>
	</g>
	<g>
		<path class="st15" d="M1062.6,91.1c0.8,0.7,1.5,1.4,2.1,2.2c0.4,0.6,1.4-0.1,1-0.7c-0.6-0.9-1.4-1.7-2.3-2.5
			C1062.8,89.7,1062,90.6,1062.6,91.1L1062.6,91.1z"/>
	</g>
	<g>
		<path class="st15" d="M1070.5,92.5c0.5-1,1-1.9,1.5-2.9c0.4-0.7-0.7-1.2-1.1-0.5c-0.5,1-1,1.9-1.5,2.9
			C1069.1,92.7,1070.2,93.2,1070.5,92.5L1070.5,92.5z"/>
	</g>
	<g>
		<path class="st15" d="M1074.8,89.1c0.7,0.7,1.3,1.5,1.7,2.4c0.3,0.7,1.4,0.3,1.1-0.4c-0.5-1.1-1.2-2.1-2.1-2.9
			C1075,87.6,1074.3,88.6,1074.8,89.1L1074.8,89.1z"/>
	</g>
	<g>
		<path class="st15" d="M1081.1,91.2c0.7-1,1.5-1.9,2-2.9c0.4-0.7-0.7-1.2-1.1-0.5c-0.5,1-1.3,1.8-1.9,2.7
			C1079.7,91.1,1080.7,91.8,1081.1,91.2L1081.1,91.2z"/>
	</g>
	<g>
		<path class="st15" d="M1016,166.1c0.8-0.1,0.6-1.3-0.1-1.2C1015.1,165,1015.2,166.2,1016,166.1L1016,166.1z"/>
	</g>
	<g>
		<path class="st15" d="M1019.8,160.4c0.8-0.1,0.6-1.3-0.1-1.2C1018.9,159.3,1019.1,160.5,1019.8,160.4L1019.8,160.4z"/>
	</g>
	<g>
		<path class="st15" d="M1025.2,166.3c0.8-0.1,0.6-1.3-0.1-1.2C1024.3,165.2,1024.4,166.4,1025.2,166.3L1025.2,166.3z"/>
	</g>
	<g>
		<path class="st15" d="M1028.9,158.1c0.8-0.1,0.6-1.3-0.1-1.2C1028,157,1028.2,158.2,1028.9,158.1L1028.9,158.1z"/>
	</g>
	<g>
		<path class="st15" d="M1038.7,157.2c0.8-0.1,0.6-1.3-0.1-1.2C1037.8,156.1,1037.9,157.3,1038.7,157.2L1038.7,157.2z"/>
	</g>
	<g>
		<path class="st15" d="M1043.4,164.6c0.8-0.1,0.6-1.3-0.1-1.2C1042.5,163.5,1042.6,164.7,1043.4,164.6L1043.4,164.6z"/>
	</g>
	<g>
		<path class="st15" d="M1034.2,164.5c0.8-0.1,0.6-1.3-0.1-1.2C1033.3,163.4,1033.4,164.6,1034.2,164.5L1034.2,164.5z"/>
	</g>
	<g>
		<path class="st15" d="M1048.3,155.7c0.8-0.1,0.6-1.3-0.1-1.2C1047.4,154.6,1047.6,155.8,1048.3,155.7L1048.3,155.7z"/>
	</g>
	<g>
		<path class="st15" d="M1054.2,164.3c0,0.1,0,0.1,0,0.2c0.1,0.8,1.3,0.6,1.2-0.1c0-0.1,0-0.1,0-0.2
			C1055.3,163.4,1054.1,163.5,1054.2,164.3L1054.2,164.3z"/>
	</g>
	<g>
		<path class="st15" d="M1060,154.6c0.8-0.1,0.6-1.3-0.1-1.2C1059.1,153.5,1059.2,154.7,1060,154.6L1060,154.6z"/>
	</g>
	<g>
		<path class="st15" d="M1066.7,161.1c0.8-0.1,0.6-1.3-0.1-1.2C1065.8,160,1065.9,161.2,1066.7,161.1L1066.7,161.1z"/>
	</g>
	<g>
		<path class="st15" d="M1072.2,152.9c0.8-0.1,0.6-1.3-0.1-1.2C1071.3,151.8,1071.5,153,1072.2,152.9L1072.2,152.9z"/>
	</g>
	<g>
		<path class="st15" d="M1077.8,159.7c0.8-0.1,0.6-1.3-0.1-1.2C1076.9,158.6,1077,159.8,1077.8,159.7L1077.8,159.7z"/>
	</g>
	<g>
		<path class="st15" d="M1083.5,151c0.8-0.1,0.6-1.3-0.1-1.2C1082.6,149.9,1082.7,151.1,1083.5,151L1083.5,151z"/>
	</g>
	<g>
		<path class="st15" d="M1093.8,157.2c0.8-0.1,0.6-1.3-0.1-1.2C1092.9,156.1,1093,157.3,1093.8,157.2L1093.8,157.2z"/>
	</g>
	<g>
		<path class="st15" d="M1102.9,146.3c0.8-0.1,0.6-1.3-0.1-1.2C1102,145.2,1102.2,146.4,1102.9,146.3L1102.9,146.3z"/>
	</g>
	<g>
		<path class="st15" d="M1092.9,148.7c0.8-0.1,0.6-1.3-0.1-1.2C1092,147.6,1092.1,148.8,1092.9,148.7L1092.9,148.7z"/>
	</g>
	<g>
		<path class="st15" d="M1101.5,158c0.8-0.1,0.6-1.3-0.1-1.2C1100.6,156.8,1100.7,158,1101.5,158L1101.5,158z"/>
	</g>
	<g>
		<path class="st15" d="M1112.5,139.3c0.8-0.1,0.6-1.3-0.1-1.2C1111.6,138.2,1111.7,139.4,1112.5,139.3L1112.5,139.3z"/>
	</g>
	<g>
		<path class="st15" d="M1108.4,152.2c0.8-0.1,0.6-1.3-0.1-1.2C1107.5,151.1,1107.6,152.3,1108.4,152.2L1108.4,152.2z"/>
	</g>
	<g>
		<path class="st15" d="M1114.8,148.4c0.8-0.1,0.6-1.3-0.1-1.2C1113.9,147.3,1114,148.5,1114.8,148.4L1114.8,148.4z"/>
	</g>
	<g>
		<path class="st15" d="M1123.1,151.9c0,0.1,0,0.1,0,0.2c0.1,0.8,1.3,0.6,1.2-0.1c0-0.1,0-0.1,0-0.2
			C1124.2,151,1123,151.2,1123.1,151.9L1123.1,151.9z"/>
	</g>
	<path class="st11" d="M1059.2,115.9c-1.9-3-6.9-4.1-10.3-2.4c-8.3,4.1,0,14.8,4.9,18.5c17.1,11.7,22.6-23.1,11.2-21.5
		c-3.2,0.3-5.8,3.2-6.1,6.5"/>
	<g>
		<path class="st15" d="M1018.4,75c1.1-0.1,2.1-0.3,3.2-0.1c0.8,0.1,1-1.1,0.2-1.2c-1.2-0.1-2.4,0-3.5,0.1
			C1017.4,73.9,1017.6,75.1,1018.4,75L1018.4,75z"/>
	</g>
	<g>
		<path class="st15" d="M1053.7,73.9c1.8,0.6,3.5,0.4,5.1-0.6c0.7-0.4-0.1-1.4-0.7-1c-1.2,0.7-2.6,0.9-3.9,0.4
			C1053.5,72.6,1053,73.7,1053.7,73.9L1053.7,73.9z"/>
	</g>
	<g>
		<path class="st15" d="M1039.4,75.5c1.8,0.6,3.5,0.4,5.1-0.6c0.7-0.4-0.1-1.4-0.7-1c-1.2,0.7-2.6,0.9-3.9,0.4
			C1039.1,74.1,1038.6,75.2,1039.4,75.5L1039.4,75.5z"/>
	</g>
	<g>
		<path class="st15" d="M1071.8,60.6c-0.1,0.7-0.1,1.4,0,2.1c0.1,0.8,1.3,0.6,1.2-0.1c-0.1-0.6-0.1-1.2,0-1.8
			C1073.2,60.1,1072,59.9,1071.8,60.6L1071.8,60.6z"/>
	</g>
	<g>
		<path class="st15" d="M1053,115.1c-5.6,0.4-4.6,5.9-2.8,9.6c0.3,0.7,1.5,0.3,1.1-0.4c-1.4-2.9-3-7.6,1.8-8
			C1053.9,116.3,1053.7,115.1,1053,115.1L1053,115.1z"/>
	</g>
	<g>
		<g>
			<path class="st16" d="M1020.9,91.7c0,4.2,0.5,9.1,4.2,11.6c5.3,3.6,13.4-0.1,18.9-1.2c8.3-1.7,16.7-1.7,25.1-3.1
				c6.1-1,11.8,0.6,16.2-4.6c1.9-2.3,2.7-7.4,0.8-9.9c-2.7-3.7-12-1-15.6-0.4c-8.7,1.4-17.4,1.6-26.2,2.7c-4,0.5-7.9,1.6-11.9,2.5
				c-3.8,0.9-7.7,1-11.4,2c-0.4,0.1-0.1,0.6,0.2,0.5c5.9-1.5,12.1-2.1,18.1-3.5c5.9-1.3,11.9-1.7,17.8-2.1c5.6-0.4,11-1.2,16.6-2.1
				c3-0.5,6.1-0.7,9.2-0.6c5.5,0.2,3.6,7.9,2,10.5c-3.4,5.4-12.1,3.8-17.5,4.7c-5.5,0.9-10.9,1-16.4,1.7c-5.6,0.6-10.9,2.3-16.4,3.4
				c-4.4,0.9-9.5,0.3-11.7-4.2c-1.2-2.4-1.3-5.4-1.3-8C1021.4,91.2,1020.9,91.3,1020.9,91.7L1020.9,91.7z"/>
		</g>
		<g>
			<path class="st16" d="M1035.1,88.8c-0.1-7-4.7-11.1-10.3-14.4c-0.3-0.2-0.6,0.3-0.2,0.5c5.4,3.2,9.9,7.2,10,13.9
				C1034.5,89.2,1035.1,89.2,1035.1,88.8L1035.1,88.8z"/>
		</g>
		<g>
			<path class="st16" d="M1039.9,87.8c-0.7-6.5-7.3-13.5-13.4-15.6c-0.3-0.1-0.6,0.4-0.2,0.5c5.8,2,12.4,8.9,13,15.1
				C1039.4,88.3,1040,88.2,1039.9,87.8L1039.9,87.8z"/>
		</g>
		<g>
			<path class="st16" d="M1023.4,72.8c-2.1-1.3-4.2-1.7-6.6-1c-1.2,0.3-2.8,1.3-2.2,2.7c0.7,1.6,3.7,1.8,5.1,1.8
				c2.1,0,4.2-0.8,5.7-2.1c1.1-0.9,1.7-2.5,1.3-3.9c-0.4-1.3-1.6-3.3-3.2-3.4c-2.5-0.1-1.2,5.4-0.5,6.5c0.2,0.3,0.7,0,0.5-0.3
				c-0.9-1.4-1.1-3.6-0.5-5.1c0.7-1.7,2.9,1.6,3.1,2.2c0.6,1.5-0.2,2.9-1.3,3.8c-2,1.7-5,2-7.4,1.5c-0.5-0.1-3.4-1-1.8-2.4
				c0.6-0.5,1.6-0.8,2.3-1c1.9-0.4,3.7,0.3,5.2,1.2C1023.5,73.5,1023.7,73,1023.4,72.8L1023.4,72.8z"/>
		</g>
		<g>
			<path class="st16" d="M1065.5,84.7c-2.5-7.7,1.1-14,5.6-20.1c0.2-0.3-0.2-0.7-0.4-0.4c-4.7,6.3-8.2,12.7-5.7,20.7
				C1065.1,85.2,1065.7,85,1065.5,84.7L1065.5,84.7z"/>
		</g>
		<g>
			<path class="st16" d="M1070.6,84.1c-0.6-6.2,0.9-11.7,4.3-16.9c0.2-0.3-0.3-0.7-0.4-0.4c-3.4,5.4-5,10.9-4.4,17.3
				C1070.1,84.5,1070.7,84.5,1070.6,84.1L1070.6,84.1z"/>
		</g>
		<g>
			<path class="st16" d="M1074.1,64.4c0.4-1.6,1.1-3.4,0.5-5c-0.4-1.1-2.4-1.4-3.3-0.7c-2.6,2.1-0.8,6.7,1.7,7.9
				c2.2,1.1,4.1,0.4,6-1.2c1.1-0.9,2.3-2.7,1.5-4.1c-1.2-2.1-6.1,1.6-6.8,2.8C1073.5,64.4,1074,64.6,1074.1,64.4
				c0.9-1.5,3.2-2.6,4.7-3c0.8-0.2,1.3,0.1,1.2,1.2c-0.1,1.1-1.1,2.1-1.9,2.7c-1.8,1.6-3.8,1.6-5.7,0.2c-1.7-1.3-2.4-4.2-1.2-6
				c0.5-0.8,1.8-0.8,2.5-0.3c0.7,0.5,0.5,1.7,0.5,2.4c-0.1,0.9-0.4,1.8-0.6,2.7C1073.4,64.6,1074,64.7,1074.1,64.4L1074.1,64.4z"/>
		</g>
		<g>
			<path class="st16" d="M1028.9,73.8c13.4,0.1,28-0.8,40.3-6.4c0.3-0.2,0.1-0.7-0.2-0.5c-12.3,5.7-26.8,6.5-40.1,6.4
				C1028.4,73.2,1028.5,73.8,1028.9,73.8L1028.9,73.8z"/>
		</g>
		<g>
			<path class="st16" d="M1032.6,73.9c3.3,3.3,6.7,5,11.5,4.5c1.6-0.2,2.6-1.2,3.6-2.4c1.2-1.3,0.8-3.1,2.3-1.6
				c2.4,2.5,5.6,3.6,9,2.5c3.3-1.1,3.5-4.8,4.8-7.4c0.2-0.3-0.4-0.6-0.5-0.2c-0.6,1.3-0.8,2.7-1.4,4c-2.2,5-10.7,4.4-12.1-0.9
				c-0.1-0.2-0.4-0.2-0.5-0.1c-1.8,2.8-2.2,5.1-6.6,5.6c-3.8,0.4-7.1-2-9.6-4.5C1032.7,73.2,1032.3,73.6,1032.6,73.9L1032.6,73.9z"
				/>
		</g>
		<g>
			<path class="st16" d="M1025,103c-3.9,6.6-6.1,15-7.7,22.4c-1.7,7.9-2,16.5-1.2,24.6c0,0.4,0.6,0.3,0.6-0.1
				c-0.7-8.1-0.2-16.4,1.2-24.4c1.3-7.2,3.8-16,7.6-22.3C1025.8,103,1025.2,102.7,1025,103L1025,103z"/>
		</g>
		<g>
			<path class="st16" d="M1016.5,150.4c7.3,1.5,15.6,0,23-0.4c9.3-0.5,19-1.6,28.1-3.2c8.6-1.6,17.3-3.1,25.7-5.4
				c6.3-1.7,13.7-4.1,18.1-9.2c0.2-0.3-0.2-0.6-0.4-0.4c-4.7,5.4-12.7,7.6-19.4,9.4c-8.4,2.3-17.2,3.7-25.8,5.2
				c-8.1,1.5-16.4,1.8-24.6,2.7c-4,0.5-8.1,0.3-12.2,0.7c-4.2,0.4-8.3,0.8-12.5-0.1C1016.3,149.8,1016.2,150.4,1016.5,150.4
				L1016.5,150.4z"/>
		</g>
		<g>
			<path class="st16" d="M1085.2,94.3c6.8,7.6,13.3,15.5,18.7,24.3c2.7,4.4,4.7,9.1,7.2,13.6c0.2,0.3,0.7,0.1,0.5-0.2
				c-2.3-4.3-4.3-8.8-6.8-13.1c-5.3-9-12.2-17.1-19.1-25C1085.4,93.7,1084.9,94,1085.2,94.3L1085.2,94.3z"/>
		</g>
		<g>
			<path class="st16" d="M1016.2,149.9c-1.7,4-4.1,7.6-6.2,11.3c-1.9,3.3-2.3,6.2-2.6,9.9c-0.2,3.3-1.1,7.4,3.9,4.8
				c2.6-1.3,4.7-2.5,7.9-1.4c1,0.3,2,0.6,3.1,0.6c4.5-0.1,8.1-2.7,12.4-3.7c4.1-0.9,8.1,1.6,12.1,2.2c3.4,0.5,6.3-1,9.2-2.6
				c7.2-3.9,12.7,3.4,20,1.1c3.1-1,5.7-3.7,8.1-5.8c5.5-4.6,10.3-3.1,16.3-0.8c7.3,2.7,10.3-3.6,15.9-6.4c3.3-1.6,7.3,1.6,10.8,1
				c2.3-0.4,4.2-3.3,5.2-5.2c0.2-0.3-0.4-0.6-0.5-0.2c-1.9,3.6-5.4,5.6-9.4,4.3c-1.3-0.4-1.1-0.4-2.4-0.7c-1.6-0.4-3.6,0-5,0.9
				c-3.5,2.4-5.3,5.4-9.8,6.4c-3.8,0.8-8.2-2.2-12.1-3c-5.6-1.1-9.7,3.8-13.7,6.9c-4.6,3.6-8.8,2.9-13.6,0.6c-2.1-1-4.1-1.4-6.4-1.1
				c-2.1,0.3-4.1,1.8-5.9,2.7c-4.3,2.2-8.3,1.1-12.5-0.3c-7.6-2.5-12.9,3.7-20.3,2.8c-2.6-0.3-3.5-1.3-6.1-0.6
				c-1.2,0.3-2.3,1.1-3.4,1.6c-3.3,1.4-3.3-2.1-3.1-4.2c0.4-4.2,1.2-7.5,3.3-11.2c1.9-3.3,3.9-6.4,5.4-9.9
				C1016.8,149.8,1016.3,149.6,1016.2,149.9L1016.2,149.9z"/>
		</g>
		<g>
			<path class="st16" d="M1111.3,132.3c3.4,3.3,7.1,6.3,10.4,9.9c2.3,2.4,11.7,9.5,9.7,13.4c-0.2,0.3,0.4,0.6,0.5,0.2
				c1.8-3.4-1.8-6-4-8.1c-3.2-3-6.1-6.3-9.1-9.4c-2.2-2.4-4.8-4.1-7.1-6.3C1111.4,131.6,1111,132,1111.3,132.3L1111.3,132.3z"/>
		</g>
		<g>
			<path class="st16" d="M1031.6,172.3c0.6,2.9,1.2,5.5,4.2,6.7c3.5,1.3,9.4-1,13-1.3c2.4-0.2,4.9-0.1,7.3,0.3
				c4.2,0.7,5.4,5,6.2,8.4c0.7,2.9,2.5,3.6,5.3,3.7c2.7,0.1,7-0.2,9.5-1.6c4.4-2.5,2.1-6,3.5-10.3c2.9-8.8,18.7-2.5,19.8-13
				c0-0.4-0.5-0.5-0.6-0.1c-0.9,8.9-12.6,5.3-17.6,10.1c-1.5,1.4-2.7,3.2-2.7,5.3c0,4.2-0.5,7.1-5.2,8.2c-1.7,0.4-3.5,0.5-5.2,0.7
				c-8.7,0.9-4.8-10-11.7-11.7c-2.8-0.7-5.7-0.7-8.6-0.6c-6.1,0.2-14.7,4.3-16.5-4.8C1032.1,171.9,1031.6,171.9,1031.6,172.3
				L1031.6,172.3z"/>
		</g>
		<g>
			<path class="st16" d="M1035.2,178.8c2.4,4.2,8.4,8,12.9,9.6c5.1,1.8,11.7,1.7,17,1.2c0.4,0,0.3-0.6-0.1-0.6
				c-5,0.5-10.4,0.3-15.4-0.8c-4.6-1-11.6-5.5-14.1-9.8C1035.5,178.1,1035.1,178.5,1035.2,178.8L1035.2,178.8z"/>
		</g>
		<g>
			<path class="st16" d="M1078.4,188.1c6.1,0.1,11.5-3.4,16.1-7.3c4.5-3.9,5.6-8.5,5.6-14.2c0-0.4-0.6-0.3-0.6,0.1
				c0,6.2-1.7,10.5-6.4,14.6c-4.1,3.5-9.3,6.4-14.8,6.3C1077.9,187.5,1078,188.1,1078.4,188.1L1078.4,188.1z"/>
		</g>
		<g>
			<path class="st16" d="M1017.2,75.5c-7.4,4.2-19.9,8.4-15.9,18.9c1.4,3.7,3.5,7.2,7.3,9c4.5,2.1,10.6-0.3,14.5-2.6
				c0.3-0.2,0-0.7-0.3-0.5c-4.3,2.6-10,4.4-14.8,2.2c-3.8-1.8-5.5-6.6-6.9-10.2c-2.9-8.2,11.3-13.3,16.5-16.2
				C1017.8,75.8,1017.5,75.3,1017.2,75.5L1017.2,75.5z"/>
		</g>
		<g>
			<path class="st16" d="M1079,65.4c5.7,1.8,17.7,0.2,20.5,6.5c1.4,3.1,0.1,7.2-1.2,10.1c-2.2,4.9-6,6.6-11.1,5.6
				c-0.4-0.1-0.5,0.5-0.1,0.6c7.9,1.6,13.6-5.1,13.4-12.9c-0.2-10.6-14.1-8.1-21.3-10.4C1078.9,64.8,1078.6,65.3,1079,65.4
				L1079,65.4z"/>
		</g>
	</g>
</g>
<g>
	<g>
		<path class="st11" d="M1126.2,65c0,0-8.6-0.7-16.7,2.5c-8.1,3.2-14,10.5-9.4,21.9c4.6,11.3,20.2,18.2,30.8,20
			c0,0,19.6-0.5,40.8-12.8c0,0,22.8-9.8,17.1-35.6c0,0-4.4-16.2-16.7-18.3c0,0-9.7,0.1-20.9,11.3c0,0-1,4.1,1.2,8.5
			c0,0,9.6-6.9,14.5-4.4c0,0,7.8,2.5-1.4,11.8c0,0,12.2,2.2,8.2,12.5c0,0-4.6,8.1-17.2,2.9l-0.5,2.5c0,0,1.9,8-4.6,8.9
			c-6.5,0.8-10.3-5.9-10.3-5.9s-5,11.9-10.7,10.8c-5.6-1.1-5.5-9.4-3.9-14.4l-0.6-0.2c0,0-7.2,3.3-7.4-1.9
			c-0.2-5.2,5.3-11.9,13.5-8.1C1132,77,1130.9,67.7,1126.2,65z"/>
	</g>
	<g>
		<path class="st17" d="M1172.3,42.6c0,0-7.6,0.1-17.1,7.9c4-1.9,8.5-2.6,13-2c9,1.3,16.8,9.6,16.5,19c-0.3,9.2-7,16.6-14.2,21.6
			c-8.8,6-18.8,11.6-29.3,13.7c-9.7,1.9-20.1,1.2-28.1-5.2c-5.1-4.1-7.7-11-5.2-17.3c2.7-6.7,8.6-12.3,15.4-15.3
			c-3.2,0.1-8.5,0.5-13.6,2.6c-8.1,3.2-14,10.5-9.4,21.9c4.6,11.3,20.2,18.2,30.8,20c0,0,19.6-0.5,40.8-12.8c0,0,22.8-9.8,17.1-35.6
			C1189,60.9,1184.6,44.7,1172.3,42.6z"/>
	</g>
	<g>
		<path class="st6" d="M1132,77c0,0-11.2-5.8-13.5,8.1c0,0,0,5.4,8.2,1.3c0,0-4.1,17.7,5.8,14.9c0,0,5.1-0.4,7.8-10.6
			c0,0,6.4,8,12.1,5.8c0,0,4.5,0.1,3.3-11.3c0,0,11.5,6.2,17.9-2.9c0,0,3.3-10.1-8.2-12.5c0,0,6.9-5.8,3.5-10.4
			c-3.5-4.6-13.2-0.2-16.6,4.1c0,0,5,4.9,5,8.4c0,3.5-0.9,9.2-11.9,11.7c-10.9,2.5-12,0.4-12,0.4L1132,77z"/>
	</g>
	<g>
		<path class="st8" d="M1154.9,61.2c1.1-0.2,2.2-0.5,3.3-0.9c4.9-1.8,9.6,4.2,5.2,8c-1,0.8-2,1.5-3,2.3c0,0,0,0,0,0
			c0.1,0,0.2,0.1,0.3,0.2c1.6,1.1,3.3,2.1,4.9,3.3c3.8,2.9,2,8.9-3,8.8c-2.8-0.1-5.5-1-8.2-1.7c-0.2-0.1-0.9-0.3-1.6-0.4
			c-0.1,0-0.1,0.1-0.2,0.1c0.5,4,1.2,8.3-2.7,10.8c-4.1,2.6-7.9-0.7-10.2-4c-0.4,1.8-0.7,3.6-1.3,5.3c-1.9,5.3-9.4,3.6-9.4-1.8
			c0-2.2-0.1-4.4-0.4-6.6c-3.9,1.6-8.9-2.8-5.9-7c0.2-0.3,0.4-0.6,0.7-0.8c-2.2,1.1-4.2,3.5-5,8.5c0,0,0,5.4,8.2,1.3
			c0,0-4.1,17.7,5.8,14.9c0,0,5.1-0.4,7.8-10.6c0,0,6.4,8,12.1,5.8c0,0,4.5,0.1,3.3-11.3c0,0,11.5,6.2,17.9-2.9
			c0,0,3.3-10.1-8.2-12.5c0,0,6.9-5.8,3.5-10.4C1166.2,55.7,1159.2,58,1154.9,61.2z"/>
	</g>
	<g>
		<path class="st9" d="M1133.4,84.1l-1.1-5.3c0,0-0.3-4.7-1.3-6.4c-0.9-1.8-4.5-7.7-10.5-15.7c0,0-12.1-12.5,2.2-23.4
			c0,0,12.1-8.9,23-1.6c0,0,6.1,2.7,6,13.8c0,0-1.6,11.3-0.4,15.6c1.2,4.3,6.9,9,6.2,12.3C1157,76.5,1153.1,86.1,1133.4,84.1z"/>
	</g>
	<g>
		<path class="st18" d="M1146,31.6c-5.5-3.7-11.2-3.3-15.6-2c6.5,1.4,11.6,6.8,13.4,14.5c1.4,6.2-1.4,13.5,1.1,19.3
			c2.4,5.2,6.6,9.6,11.9,11.9c0.1,0,0.2,0.1,0.3,0.1c0.4-0.9,0.6-1.6,0.7-2.2c0.6-3.2-5.1-8-6.2-12.3c-1.2-4.3,0.4-15.6,0.4-15.6
			C1152.1,34.3,1146,31.6,1146,31.6z"/>
	</g>
	<g>
		<path class="st19" d="M1129.2,109.1c0,0,11.2,0.3,16.1-1.9l0.8,0c0,0-10.4,12.3,4.6,22.8c0,0,13.4,8.2,23.7-4
			c0,0,6.3-8.3,0.1-21.2c0,0-3.1-5.2-5.9-6.8l9.6-5.7c0,0,17.5,11.3,14.7,29.3c0,0-3.2,20.8-30.8,27c0,0-23.5,4-32.3-19.4
			C1130,129,1125.5,117.2,1129.2,109.1z"/>
	</g>
	<g>
		<path class="st20" d="M1178.2,92.4l-2.4,1.4c6.7,7.3,12.3,16.7,10.2,26.9c-2.6,12.3-14.1,20.2-26.4,20
			c-15.3-0.3-32.2-16.3-28-31.4c-1.5,0-2.5,0-2.5,0c-3.7,8.1,0.7,20,0.7,20c8.8,23.4,32.3,19.4,32.3,19.4c27.7-6.2,30.8-27,30.8-27
			C1195.7,103.7,1178.2,92.4,1178.2,92.4z"/>
	</g>
	<g>
		<path class="st4" d="M1176.5,121.4c0,0,1.2-4,0.9-4.8c0,0,5.8-3.8,15.6,5.8c0,0,11.3,11.6,25.8,15.9c0,0,12.5,4.2,18.4,0.3
			c0,0,9.2-5.7,5.7-20.9c0,0,1.7-3.5,1.6-5.3c0,0,3.8,13.1,2.1,20.2c-1.7,7.1-8.7,14.3-23.7,11.4c0,0-10-1-20.3-8.2l-8.3-5.1
			l-3.2-3.2c0,0-3.3-3.3-6.4-4.9C1181.7,121.3,1180.4,121,1176.5,121.4z"/>
	</g>
	<g>
		<path class="st21" d="M1243.8,116.9c3,6.5,1.8,16-3.1,21c-5,5.1-12.3,5.6-19,4.1c-5.1-1.2-10.2-3.3-14.7-6.1
			c-3.7-1.9-7.2-4-10.6-6.5c-5-3.7-9.9-9-16.3-10.1c-1-0.2-1.8-0.5-2.4-1.1c-0.3,1.4-0.7,2.9-0.7,2.9c3.9-0.4,5.2-0.2,8.3,1.4
			c3.2,1.5,6.4,4.9,6.4,4.9l3.2,3.2l8.3,5.1c10.3,7.2,20.3,8.2,20.3,8.2c15,2.9,21.9-4.3,23.7-11.4c1.7-7.1-2.1-20.2-2.1-20.2
			C1245.2,113.6,1244.3,115.8,1243.8,116.9z"/>
	</g>
	<g>
		<g>
			<path class="st15" d="M1136.4,116.9c0.9-1.3-1.1-2.6-2-1.3C1133.5,116.9,1135.5,118.2,1136.4,116.9L1136.4,116.9z"/>
		</g>
	</g>
	<g>
		<g>
			<path class="st15" d="M1139.8,131.5c0.9-1.3-1.1-2.6-2-1.3C1136.9,131.5,1138.9,132.8,1139.8,131.5L1139.8,131.5z"/>
		</g>
	</g>
	<g>
		<g>
			<path class="st15" d="M1151.5,139.4c0.9-1.3-1.1-2.6-2-1.3C1148.6,139.3,1150.6,140.6,1151.5,139.4L1151.5,139.4z"/>
		</g>
	</g>
	<g>
		<g>
			<path class="st15" d="M1163.5,139.3c0.9-1.3-1.1-2.6-2-1.3S1162.6,140.6,1163.5,139.3L1163.5,139.3z"/>
		</g>
	</g>
	<g>
		<g>
			<path class="st15" d="M1173.9,134.7c0.9-1.3-1.1-2.6-2-1.3C1171,134.6,1173,136,1173.9,134.7L1173.9,134.7z"/>
		</g>
	</g>
	<g>
		<g>
			<path class="st15" d="M1185.9,112.7c0.1-0.1,0.1-0.2,0.2-0.3c0.9-1.3-1.1-2.6-2-1.3c-0.1,0.1-0.1,0.2-0.2,0.3
				C1183.1,112.6,1185.1,113.9,1185.9,112.7L1185.9,112.7z"/>
		</g>
	</g>
	<g>
		<g>
			<path class="st15" d="M1182.6,103.9c0.9-1.3-1.1-2.6-2-1.3C1179.7,103.8,1181.7,105.1,1182.6,103.9L1182.6,103.9z"/>
		</g>
	</g>
	<g>
		<g>
			<path class="st15" d="M1177.9,98.1c0.9-1.3-1.1-2.6-2-1.3C1175.1,98,1177.1,99.4,1177.9,98.1L1177.9,98.1z"/>
		</g>
	</g>
	<g>
		<g>
			<path class="st15" d="M1182.5,128.1c0.9-1.3-1.1-2.6-2-1.3C1179.7,128.1,1181.7,129.4,1182.5,128.1L1182.5,128.1z"/>
		</g>
	</g>
	<g>
		<path class="st11" d="M1244.7,113.2c0,0-1.6,7.7-5.7,5.8c0,0-4.3-0.4-2.7-7.8c0,0-4,3.1-5.2-0.1c-1.2-3.3,2.2-4.4,2.2-4.4
			s-6.7,0.9-5.3-4.5c1.4-5.3,6.7-1.7,6.7-1.7s-5.8-5,0.4-8.3c0,0,4.1-2.1,6.1,2.9c0,0,3.8-5.9,7.1-4.1c3.3,1.8,0.3,7.3,0.3,7.3
			s4.6-2.9,7.6,3.7c0,0,1.2,4.1-4.6,6.5c0,0,2.3,6.2-0.9,7.9C1247.7,118.1,1244.7,113.7,1244.7,113.2z"/>
	</g>
	<g>
		<path class="st22" d="M1248.3,90.8c-2.3-1.2-4.8,1.2-6.2,2.9c2.4,0,4.9,2,5.1,4.8c0.5,0.1,1,0.1,1.6,0.2c5.1,0.7,5.6,7.5,2,9.2
			c0,0.3,0.1,0.6,0.1,1c0.1,2.6-2.7,4.6-5.1,4.5c-0.3,0-0.7-0.1-1-0.1c0.4,1,3.2,4.5,6.1,3c3.2-1.7,0.9-7.9,0.9-7.9
			c5.7-2.4,4.6-6.5,4.6-6.5c-3-6.6-7.6-3.7-7.6-3.7S1251.6,92.6,1248.3,90.8z"/>
	</g>
	<g>
		<path class="st22" d="M1243.2,112.8c-1.1,3-4.9,3.7-7.3,2.2c0.4,3.5,3,3.8,3,3.8c3.7,1.8,5.4-4.5,5.7-5.6
			C1244.1,113.1,1243.7,113,1243.2,112.8z"/>
	</g>
	<g>
		<path class="st6" d="M1239.9,105.1c0,0,0.2,3,2.3,3.1c0,0,3.5-0.3,2.8-4c0,0-1.3-3.1-3.4-1.9
			C1239.6,103.5,1239.9,105.1,1239.9,105.1z"/>
	</g>
	<g>
		<g>
			<path class="st15" d="M1115.6,79.8c-2.9,4.7-1.8,13.4,5.2,12.7c0.8-0.1,0.5-1.3-0.2-1.2c-6,0.6-6.3-7.1-4-10.8
				C1117,79.8,1116,79.1,1115.6,79.8L1115.6,79.8z"/>
		</g>
	</g>
	<g>
		<g>
			<path class="st15" d="M1173,66.6c5.9-5.7,0.1-13.2-7.1-12.4c-0.8,0.1-0.5,1.3,0.2,1.2c5.9-0.7,11.1,5.5,6.1,10.3
				C1171.6,66.2,1172.4,67.1,1173,66.6L1173,66.6z"/>
		</g>
	</g>
	<g>
		<g>
			<path class="st15" d="M1158.4,63.7c2.1,0,3.1,1.7,2.6,3.6c-0.2,0.7,0.9,1.1,1.1,0.4c0.7-2.6-0.8-5.2-3.7-5.2
				C1157.7,62.5,1157.7,63.7,1158.4,63.7L1158.4,63.7z"/>
		</g>
	</g>
	<g>
		<g>
			<path class="st15" d="M1143.2,127.9c2.8,3.2,6.3,5,10.2,6.5c0.7,0.3,1.1-0.9,0.4-1.1c-3.7-1.4-7-3.1-9.7-6.2
				C1143.6,126.5,1142.7,127.3,1143.2,127.9L1143.2,127.9z"/>
		</g>
	</g>
	<g>
		<g>
			<path class="st15" d="M1236.4,97.7c-0.4-0.4-0.7-1-0.3-1.6c0.4-0.6,1.3-0.5,1.9-0.3c0.7,0.2,1.1-0.9,0.4-1.1
				c-1.2-0.3-2.5-0.2-3.3,0.8c-0.7,0.9-0.3,2.2,0.4,3C1236,99.1,1236.9,98.3,1236.4,97.7L1236.4,97.7z"/>
		</g>
	</g>
	<g>
		<g>
			<path class="st15" d="M1233.4,103.4c-0.8,0.1-1.3,0-1.8-0.5c0,0.2,0.1,0.4,0.1,0.6c0.1-0.4,0.6-0.4,0.9-0.6
				c0.7-0.4,0.2-1.4-0.5-1.1c-0.3,0.1-0.5,0.2-0.8,0.3c-0.4,0.2-0.6,0.5-0.7,0.9c-0.1,0.2,0,0.4,0.1,0.6c0.4,0.4,0.9,0.8,1.4,0.9
				c0.5,0.2,1,0.1,1.6,0C1234.4,104.4,1234.1,103.2,1233.4,103.4L1233.4,103.4z"/>
		</g>
	</g>
	<g>
		<g>
			<path class="st15" d="M1237.8,112.2c0,1.1,0.4,2.3,1.6,2.5c1.3,0.2,2.1-0.9,2.6-2c0.3-0.7-0.8-1.1-1.1-0.4
				c-0.2,0.5-0.6,1.2-1.2,1.2c-0.6,0-0.7-0.8-0.6-1.2C1239,111.5,1237.8,111.4,1237.8,112.2L1237.8,112.2z"/>
		</g>
	</g>
	<g>
		<g>
			<path class="st15" d="M1248,106.4c1.2-0.4,2.5-1.4,2.5-2.8c0-0.6-0.3-1.1-0.9-1.4c-0.8-0.3-1.6-0.1-2.4,0.1
				c-0.3,0.1-0.4,0.5-0.3,0.8c0.2,0.3,0.5,0.4,0.8,0.3c0.5-0.2,1.6-0.5,1.5,0.2c0,0.7-0.9,1.3-1.5,1.5
				C1247,105.4,1247.2,106.6,1248,106.4L1248,106.4z"/>
		</g>
	</g>
	<g>
		<g>
			<path class="st15" d="M1215.7,139.7c3.3,1.8,7.1,2.2,10.8,2.5c0.8,0.1,0.8-1.1,0.1-1.2c-3.5-0.3-7.1-0.6-10.2-2.3
				C1215.7,138.3,1215,139.3,1215.7,139.7L1215.7,139.7z"/>
		</g>
	</g>
	<g>
		<g>
			<g>
				<path class="st16" d="M1133.2,84.4c8.7,2.5,31-4.3,22.9-16.4c-2.8-4.2-5-6.8-5-12.2c0-4.2,1.1-8.3,1.1-12.5
					c0-6.4-3.8-11.7-9.7-13.9c-10.2-3.9-27.8,3.9-26.9,16.3c0.4,6.2,4.6,11.2,8.3,15.9c2.3,3,4.7,5.9,6.4,9.3
					c2.1,4.2,1.8,9,2.8,13.4c0.1,0.4,0.6,0.3,0.6-0.1c-1.2-5.3-1-10.4-3.8-15.3c-2.4-4.3-5.9-8-8.8-11.9c-4-5.4-6.5-11.6-3.1-18
					c3.5-6.6,11.8-9.8,18.9-9.9c8.4-0.2,14.4,6,14.9,14.2c0.3,5.9-1.9,11.6-0.7,17.5c1.1,5.1,7.6,8.1,6.2,13.7
					c-2.2,8.6-16.7,11.5-23.7,9.4C1133,83.8,1132.8,84.3,1133.2,84.4L1133.2,84.4z"/>
			</g>
		</g>
		<g>
			<g>
				<path class="st16" d="M1126.9,64.5c-8.3,0.2-18.4,1.4-24.8,7.3c-5.8,5.4-3.7,15.5-0.1,21.4c4.7,7.4,13.3,12.5,21.5,14.9
					c9.6,2.9,19.8,0.7,29-2.7c10.6-4,23.7-9.4,31-18.4c6.7-8.4,7.9-19.2,4.2-29.2c-2.4-6.3-9.2-16.2-17.1-15.4
					c-7.7,0.8-13.9,6.6-19.7,11.2c-0.3,0.2,0.1,0.7,0.4,0.4c5.1-4.1,10.2-8.6,16.6-10.6c9.1-2.8,16.2,7.3,19.3,14.6
					c4.5,10.6,1.6,22.8-6.3,30.9c-7,7.1-17.1,11.1-26.1,14.9c-16.8,7.3-35.1,6.7-48.7-6.6c-6.2-6.1-9.3-15.4-4.9-23.4
					c4.1-7.6,18-8.6,25.6-8.8C1127.2,65,1127.2,64.4,1126.9,64.5L1126.9,64.5z"/>
			</g>
		</g>
		<g>
			<g>
				<path class="st16" d="M1145.5,107.2c-8.9,12.3,3.5,27.2,17.4,25.4c18.4-2.3,18.9-25.3,6.1-35.1c-0.3-0.2-0.6,0.3-0.3,0.5
					c11.9,9.1,12.5,30.6-4.5,33.9c-13.7,2.6-27.1-11.9-18.1-24.4C1146.2,107.3,1145.7,106.9,1145.5,107.2L1145.5,107.2z"/>
			</g>
		</g>
		<g>
			<g>
				<path class="st16" d="M1129.1,108.4c-4.1,11.6,0,24.1,8.3,32.6c8.6,8.7,20.5,10.1,31.6,5.9c10.2-3.9,19.8-12.2,23.6-22.6
					c4.5-12.2-4.4-25.5-14-32.5c-0.3-0.2-0.6,0.3-0.3,0.5c10.1,7.4,18,20.2,13.4,32.7c-3.6,9.7-12.8,16.9-22,20.9
					c-11.1,4.9-23,3.1-31.8-5.4c-8.5-8.1-12.2-21-8.2-32C1129.7,108.2,1129.2,108,1129.1,108.4L1129.1,108.4z"/>
			</g>
		</g>
		<g>
			<g>
				<path class="st16" d="M1176.6,121.9c5.2-1.5,10.7,2,14.1,5.6c0.3,0.3,0.7-0.1,0.4-0.4c-3.6-3.8-9.3-7.3-14.7-5.8
					C1176.1,121.4,1176.2,122,1176.6,121.9L1176.6,121.9z"/>
			</g>
		</g>
		<g>
			<g>
				<path class="st16" d="M1177.6,116.6c5.7-1.7,10.9,1.9,14.9,5.6c0.3,0.3,0.7-0.1,0.4-0.4c-4.2-3.9-9.6-7.6-15.5-5.8
					C1177.1,116.2,1177.2,116.7,1177.6,116.6L1177.6,116.6z"/>
			</g>
		</g>
		<g>
			<g>
				<path class="st16" d="M1240.3,103c-0.9,1.6-0.8,4,0.8,5.1c1.5,1.1,3.7-0.4,4.2-1.9C1246.3,103.3,1242.4,99.9,1240.3,103
					c-0.1,0.4,0.3,0.7,0.5,0.4c1.6-2.4,4.2,0.1,4,2.2c-0.1,1.5-2,2.9-3.4,2.1c-1.4-0.8-1.4-3.1-0.7-4.3
					C1241,103,1240.5,102.6,1240.3,103L1240.3,103z"/>
			</g>
		</g>
		<g>
			<path class="st16" d="M1252.1,115.5c-0.3,0.4-0.6,0.8-1.1,1c-2.3,1.3-4.6-0.4-6.2-2.6c-0.4,1.9-1.1,4-2.7,5
				c-0.9,0.6-1.9,0.7-3.1,0.4c-2.9-0.9-3.8-4.2-3.4-7.1c-1,0.6-2.3,0.9-3.4,0.5c-0.7-0.2-1.5-0.8-1.7-2.2c-0.1-1.5,0.9-2.6,1.8-3.5
				c-1.6,0.2-3-0.4-3.9-1.6c-1-1.4-1.1-3.4-0.2-4.7c0,0,0-0.1,0.1-0.1c0.9-1.3,2.6-1.8,4.7-1.4c-1-1.4-1.3-3.1-0.6-4.6
				c0.8-1.9,2.7-3.2,4.6-3.2c1.1,0,3,0.4,4.3,3c1.3-1.8,3.5-4.7,6.6-3.8c1,0.3,1.7,0.8,2.1,1.6c0.8,1.5,0,3.6-0.6,5.3
				c1.1-0.4,2.3-0.3,3.5,0.2c1.7,0.7,3,2.1,3.5,3.6c1.2,4.1-1.5,6-4.3,7.4C1252.9,110.4,1253.4,113.6,1252.1,115.5z M1244.4,111.9
				l0.5,0.8c0.5,0.8,3,4.6,5.8,3.1c2.1-1.2,1.6-5.3,0.7-7.2l-0.2-0.3l0.3-0.2c3.4-1.7,5.2-3.3,4.2-6.7c-0.4-1.4-1.6-2.6-3.1-3.2
				c-1.3-0.5-2.6-0.5-3.7,0.1l-0.8,0.5l0.6-1.5c0.6-1.6,1.3-3.6,0.7-4.9c-0.3-0.6-0.8-1-1.7-1.2c-2.5-0.7-4.5,1.6-6.1,4.1l-0.4,0.6
				l-0.3-0.6c-0.9-2.1-2.3-3.2-3.9-3.2c-1.6,0-3.3,1.2-4,2.8c-0.4,0.9-0.7,2.8,1.2,4.7l1.1,1.1l-1.5-0.5c-2.3-0.8-4.1-0.5-5,0.8
				c-0.8,1.1-0.7,2.8,0.2,3.9c0.9,1.2,2.4,1.6,4.1,1.1c0,0,0-0.1,0.1-0.1l0.1,0c0.1,0,0.2,0,0.2-0.1l0.1,0.4l0.1,0.1
				c0,0,0,0.1-0.1,0.1l0,0.1c-0.1,0-0.1,0-0.2,0.1c-0.2,0.2-0.4,0.4-0.6,0.6c-0.9,0.9-1.8,1.9-1.7,3.1c0.1,0.8,0.6,1.4,1.3,1.6
				c1.1,0.4,2.7-0.2,3.5-0.9l0.9-0.8l-0.3,1.2c-0.5,2-0.5,6.1,2.7,7.2c1,0.3,1.8,0.2,2.5-0.3c1.6-1,2.2-3.5,2.5-5.4L1244.4,111.9z"
				/>
		</g>
		<g>
			<g>
				<path class="st16" d="M1190.8,127.7c2.3,2.9,5.4,4.5,8.5,6.4c3.6,2.2,6.9,4.7,10.8,6.5c6.3,2.8,13.7,5.1,20.7,4.6
					c6.9-0.5,12.4-2.9,15.2-9.5c3.1-7.1,0.5-15-1-22.2c-0.1-0.4-0.6-0.3-0.6,0.1c1.3,6,2.8,11.5,2.1,17.6
					c-1.1,9.9-9.6,13.5-18.6,13.4c-6.1-0.1-12.1-2.2-17.7-4.6c-3.9-1.6-7.2-4.1-10.7-6.4c-3-2-6.1-3.3-8.4-6.3
					C1191.1,127,1190.6,127.4,1190.8,127.7L1190.8,127.7z"/>
			</g>
		</g>
		<g>
			<g>
				<path class="st16" d="M1192.8,122.5c9.4,9.6,23.8,17.7,37.5,18.2c11.4,0.3,16.2-13.5,12.9-22.8c-0.1-0.4-0.6-0.1-0.5,0.3
					c2.1,5.9,0.7,12.3-2.7,17.4c-3.4,5.3-10.4,4.9-15.7,3.8c-11.5-2.4-22.8-8.9-31-17.2C1193,121.8,1192.6,122.2,1192.8,122.5
					L1192.8,122.5z"/>
			</g>
		</g>
		<g>
			<g>
				<path class="st16" d="M1132,76.6c-4.4-2.7-8.8-1-11.9,2.8c-1.8,2.2-3.7,7-0.1,8.5c1.1,0.5,5.9,0.1,6.4-0.9
					c-1.3,3.1-1.7,7.8-0.3,10.9c3.5,7.6,10.4,2.4,12.9-2.8c0.2-0.5,1.5-4.2,2-3.6c1.4,1.5,2.9,2.8,4.5,3.9c3,2.1,6.3,2.2,9.2,0
					c0.9-0.6,1.4-2.2,1.4-3.2c0-0.7,0.1-6.8,0.5-6.5c3.1,2.4,7.8,2.2,11.3,1.2c7.3-2,8.9-10.4,3-14.9c-1.3-1-3.3-1.7-4.9-1.9
					c-0.2,0,1.9-1.8,2.2-2.2c1.8-2.4,2.6-5.2,1.1-8c-3.4-6.3-13.1-0.1-16.6,2.5c-0.3,0.2,0.1,0.7,0.4,0.4c3.4-2.5,7.2-4.9,11.6-4.9
					c8.4,0,4.3,9.8-0.1,11.9c-0.3,0.1-0.2,0.5,0.1,0.5c3,0.5,5.6,1.4,7.8,3.7c3.8,3.9,1.3,9.2-2.5,11.4c-4.1,2.5-10,1.9-13.8-0.9
					c-0.2-0.1-0.4,0-0.4,0.2c-0.4,4.4,2,11.5-5.6,11.7c-3.6,0.1-7-3.7-9.3-6.1c-0.2-0.2-0.4-0.1-0.5,0.1c-1.5,4-3.2,9.2-7.7,10.7
					c-8.2,2.6-7-10.8-5.4-14.7c0.1-0.2-0.2-0.4-0.4-0.4c-2,0.9-5.6,2.6-7.7,0.7c-1.6-1.5-0.2-4.5,0.7-5.9c2.4-4.3,7.4-6.4,11.8-3.8
					C1132,77.3,1132.3,76.8,1132,76.6L1132,76.6z"/>
			</g>
		</g>
	</g>
</g>
<g>
	<g>
		<linearGradient id="SVGID_3_" gradientUnits="userSpaceOnUse" x1="712.3125" y1="55.3252" x2="865.0723" y2="55.3252">
			<stop  offset="0" style="stop-color:#FFC727"/>
			<stop  offset="0.4766" style="stop-color:#FFC525"/>
			<stop  offset="0.6483" style="stop-color:#FFC01E"/>
			<stop  offset="0.7702" style="stop-color:#FFB613"/>
			<stop  offset="0.8686" style="stop-color:#FFA802"/>
			<stop  offset="0.8771" style="stop-color:#FFA600"/>
		</linearGradient>
		<path class="st23" d="M748.5,57.9c-0.3-5.8-0.7-12.8-0.6-18h-0.2c-1.4,4.9-3.2,10.1-5.3,15.8l-7.4,20.2H731l-6.7-19.8
			c-2-5.9-3.6-11.2-4.8-16.2h-0.1c-0.1,5.2-0.4,12.2-0.8,18.4l-1.1,17.9h-5.1l2.9-41.6h6.9l7.1,20.1c1.7,5.1,3.1,9.7,4.2,14h0.2
			c1-4.2,2.5-8.8,4.4-14l7.4-20.1h6.9l2.6,41.6h-5.3L748.5,57.9z"/>
		<linearGradient id="SVGID_4_" gradientUnits="userSpaceOnUse" x1="712.3125" y1="55.3252" x2="865.0723" y2="55.3252">
			<stop  offset="0" style="stop-color:#FFC727"/>
			<stop  offset="0.4766" style="stop-color:#FFC525"/>
			<stop  offset="0.6483" style="stop-color:#FFC01E"/>
			<stop  offset="0.7702" style="stop-color:#FFB613"/>
			<stop  offset="0.8686" style="stop-color:#FFA802"/>
			<stop  offset="0.8771" style="stop-color:#FFA600"/>
		</linearGradient>
		<path class="st24" d="M784.6,56.6h-16.2v15h18v4.5h-23.4V34.5h22.5V39h-17.1v13.2h16.2V56.6z"/>
		<linearGradient id="SVGID_5_" gradientUnits="userSpaceOnUse" x1="712.3125" y1="55.3252" x2="865.0723" y2="55.3252">
			<stop  offset="0" style="stop-color:#FFC727"/>
			<stop  offset="0.4766" style="stop-color:#FFC525"/>
			<stop  offset="0.6483" style="stop-color:#FFC01E"/>
			<stop  offset="0.7702" style="stop-color:#FFB613"/>
			<stop  offset="0.8686" style="stop-color:#FFA802"/>
			<stop  offset="0.8771" style="stop-color:#FFA600"/>
		</linearGradient>
		<path class="st25" d="M825.2,74.3c-2.4,0.9-7.2,2.3-12.8,2.3c-6.3,0-11.5-1.6-15.6-5.5c-3.6-3.5-5.8-9-5.8-15.5
			c0.1-12.4,8.6-21.5,22.5-21.5c4.8,0,8.6,1.1,10.4,1.9l-1.3,4.4c-2.2-1-5-1.8-9.2-1.8c-10.1,0-16.7,6.3-16.7,16.7
			c0,10.6,6.4,16.8,16.1,16.8c3.5,0,5.9-0.5,7.2-1.1V58.6h-8.5v-4.3h13.7V74.3z"/>
		<linearGradient id="SVGID_6_" gradientUnits="userSpaceOnUse" x1="712.3125" y1="55.3252" x2="865.0723" y2="55.3252">
			<stop  offset="0" style="stop-color:#FFC727"/>
			<stop  offset="0.4766" style="stop-color:#FFC525"/>
			<stop  offset="0.6483" style="stop-color:#FFC01E"/>
			<stop  offset="0.7702" style="stop-color:#FFB613"/>
			<stop  offset="0.8686" style="stop-color:#FFA802"/>
			<stop  offset="0.8771" style="stop-color:#FFA600"/>
		</linearGradient>
		<path class="st26" d="M840.1,63l-4.3,13.1h-5.6l14.1-41.6h6.5l14.2,41.6h-5.7L854.9,63H840.1z M853.8,58.8l-4.1-12
			c-0.9-2.7-1.5-5.2-2.2-7.6h-0.1c-0.6,2.5-1.3,5-2.1,7.5l-4.1,12H853.8z"/>
	</g>
</g>
<text transform="matrix(1 0 0 1 686.4224 151.5059)" class="st15 st27 st28">SALE</text>
<g>
	
		<image style="overflow:visible;opacity:0.5;" width="347" height="275" xlink:href="ACA689F0.png"  transform="matrix(1 0 0 1 -31 -31)">
	</image>
	<g>
		<g>
			<linearGradient id="SVGID_7_" gradientUnits="userSpaceOnUse" x1="1.5976" y1="102.8953" x2="273.422" y2="102.8953">
				<stop  offset="0" style="stop-color:#DBD2C3"/>
				<stop  offset="0.105" style="stop-color:#E2DACC"/>
				<stop  offset="0.4032" style="stop-color:#F2ECE0"/>
				<stop  offset="0.702" style="stop-color:#FCF7EC"/>
				<stop  offset="1" style="stop-color:#FFFBF0"/>
			</linearGradient>
			<path class="st29" d="M272.3,4.8l-0.5,0l-0.4,0.9h-1.1c-1.7,2-3.2,3.9-5.4,5.4c-1.6,1.1-3.1,2.1-4.4,3.5c-1.8,1.9-3.9,3.1-6,4.7
				c-2.7,2-6,2.9-8.8,4.8c-1.8,1.3-3.8,2.1-5.7,3.1c-0.7,0.6-1.4,1.1-2.3,1.6c0-0.1,0-0.2,0-0.3c-0.3,0.2-0.6,0.4-0.9,0.6
				c0.1,0.1,0.1,0.1-0.1,0.2c-0.2,0.1-0.4,0.2-0.7,0.3c-1.9,1.4-3.8,2.8-5.8,3.8c-0.8,0.4-1.6,0.8-2.4,1.2c-0.1,0.1-0.1,0.2-0.2,0.3
				c-0.1,0-0.3,0-0.4,0c-0.4,0.2-0.8,0.5-1.2,0.7c0,0.1-0.1,0.1-0.1,0.2c-0.4,0.5-0.6,1.2-1.5,1.9c0.2-0.4,0.3-0.7,0.3-1
				c-0.3,0.3-0.6,0.5-0.9,0.7c-1.3,0.8-3,1.3-4.5,2c-1.8,0.9-3,2.3-4.6,3.5c-0.4,0.3-0.8,0.6-1.3,0.8c-0.6,0.4-1.3,0.8-2,1.1
				c-0.9,0.4-1.7,0.9-2.6,1.3c-0.2,0.3-0.4,0.6-0.6,0.9l-0.2-0.4c-0.4,0.3-0.9,0.6-1.3,0.9c0,0,0,0.1,0,0.1c-0.1,0.3,0,0.6-0.2,1
				c-1.1,0.9-0.5-0.2-0.9-0.1c-1.1,1-2.2,2-3.4,2.9c-0.2,0.2-0.3,0.4-0.5,0.6c-1,1.1-1.8,2.3-3.4,3.4l0.3-0.6
				c-0.8,0.4-1.8,1.1-2.6,2c-0.8,0.9-1.5,1.8-1.8,2.5c-0.1,0.1,0,0.4,0.1,0.5c-0.7,0.5-1.7,1.7-1.6,1c-0.2,0.9-0.9,1.8-1.8,2.6
				c-0.9,0.9-1.9,1.7-2.6,2.6c0.5-0.6,0.7-1.1-0.1-0.9c-0.4,0.4-0.9,0.8-1.4,1.2c-0.2,0.2-0.5,0.5-0.7,0.7c-0.3,0.2-0.6,0.5-0.8,0.7
				c-1.2,0.9-2.4,1.5-3.4,1.8c0.4-0.7,0.6-1,0.4-1.3c-0.2,0.1-0.4,0.2-0.5,0.3c-0.2,0.4-0.4,0.8-0.6,1.2c-0.4,0.6-0.9,1.1-2,2
				l-0.2-0.4c-1.8,1-2.7,3.1-4.2,2.9c1.5-1,0.9-1.1,1.3-1.9c-0.2,0.4-0.8,0.9-1.3,1.3c-0.7,0.5-1.5,1-1.9,1.2
				c-0.5,0-2.5,0.8-2.5,0.3c-0.6,0.3-1.2,0.5-1.8,0.8c-0.2,0.5-0.1,1.1-1.3,1.6l-0.8-0.2c-0.2,1.1-2.7,1.2-3.3,2.5l-0.2-0.2
				c-0.7,0.7-2.3,0.9-3.3,1.5c-0.1-0.4-0.9-0.4-1.3-0.8c0.2,0.2-1.2,0.9-1.2,1.2l-0.5-0.2l-1.4,1.1c-1.1,0.4,0-0.6,0.3-1.1
				c-0.2,0.1-0.5,0.2-0.7,0.3c-0.6,0.7-1.4,1.3-2.2,1.9c0.3-0.6-0.4-0.3-1.2,0c-0.8,0.3-1.6,0.6-1.5,0.2c-2,0.7-0.6,1.7-3.1,2.2
				l0.7-0.8c-2.2,1.4-4.2,2.1-5.2,2.9c0,0-0.1-0.1-0.1-0.1c-0.7,0.7-3.9,1.1-4.6,2.1c0-0.3,1.4-0.9,0.2-0.9c0.1,0.6-2.4,1.3-2.1,1.5
				c-0.4-0.1-1.9,0.4-1.8-0.2c-1,0.4-0.6,0.7-0.2,0.9c-1.3-0.4-1.6,1-2.7,0.5c-0.1-0.1,0.5-0.2,0.8-0.3c-0.3-0.1-0.7-0.4-1.5-0.1
				l0.1,1c-2.5,0.5-1.7,0.4-4.5,1c1.2-0.6-0.3-0.2,0.2-0.6c-2.1,0.8-0.5,0.5-2.4,1.5l0.6-1.2c-2.1,0.7-0.2,1.5-3,1.8
				c0.6-0.6-1.3-1.3-0.2-1.6c-1.1-0.3-4.8,1.1-4,0.5c-3.4,0.5-2.9,2.6-5.8,2.5l-0.9-0.3c-0.2,0.4-0.6,0.7-1.1,0.9
				c0.3-0.1,0.4-0.4,0.2-0.7c-2.4,0.9-2.8,0.9-3.7,1.9c0.3-0.4,1.3-1.4,0-1.3c-0.5-0.1-1.2,0.3-1.7,0.4c-0.7,0.4,0.1,0.9-1.2,1.5
				c-1.4,0.3-2.7,1.5-3.7,1l1.4-0.2l0.6-1c-2.1,0.7-4,1-4.6,1.7c-0.1,0-0.2-0.1-0.3-0.1c-1.9,1.5-1.2-0.7-3.9,0.7
				c-0.8,0.6-2,1.4-2.3,1.7c0.4-0.5,0.8-0.9,1.2-1.4c-0.8,0.4-1.7,0.8-2.5,1.3l0.4,0.5c-0.5,0-1,0.1-1.8,0.2c-0.6,0.1-1.3,0.2-2,0.3
				c-1.3,0.2-2.4,0.5-3.3,0.9c-1.6,1.2-2.8,2.8-2.8,3.4c-1.3,0.7-1.1,0.1-0.9-0.5c0.2-0.6,0.5-1.4-0.7-1c-1.2,1.6-1.4,2.1-1.8,2.6
				c-0.4,0.5-1,1-2.5,2.5c0.2,0.3,1.2,0,0.3,1.2c-0.6,0.5-2.5,2-2.5,3.1c0-0.1-0.1-0.1,0-0.1c-0.2,2-2.2,3-2.5,4.5
				c0-0.2-0.1,0-0.1-0.2l-1.3,2.7l-1.3,0.5c-0.2,1.2-0.6,1-1.1,2.1c0-0.5,0.7-2.1-0.3-1.3c0.6,0.5-1.8,2.8-1.2,2.6l-1,1.8l-0.9-0.3
				l-1.9,3.3c0.8-0.6,0.5,0,1.1-0.3c0,0.8-2.2,2-2.6,3.5l0.1-0.5c-1.3,0.7-2.7,3.2-2.8,4.7c0.2-0.3,0.5-0.5,0.7-0.8
				c-0.7,0.9-1,1.6-1.1,2.3c-0.2,0.7-0.2,1.3-0.7,2.4c-0.1-0.5-0.2-0.9-0.5-0.6c0.1,0.7,0,1.8-0.3,3c-0.3,1.2-0.6,2.4-1,3.4
				c0,0,0,0-0.1,0c-0.5,1-0.9,1.2-1.3,0.9c0.6-1,0.5-1.5,0.2-1.7c-1,1.9-0.8,2.2-0.4,2.4c0.4,0.2,0.8,0.4,0,1.8
				c0.1-0.7-0.3-0.5-0.5-0.2c0.1,0.4,0.1,0.8,0.2,1.2l-0.5-0.9c-0.5,0.3-0.5,1.3-0.8,2l0.1,0c-0.5,0.2-1,0.4-0.7-0.7
				c-0.1,1-1.1,1.6-0.9,2.4c0.3-0.2,0.5-0.4,0.8-0.6c-0.2,1-0.8,0.7-0.9,1.8c-0.4,0.1,0.3-1.3-0.5-0.6c-0.8,1.2-0.5,2-0.3,2.2
				c0.3-0.5,0.2-0.5,0.2-0.8c1,0.4-0.1,1.2-0.2,2.6l-0.2-1.1c-0.5,0.8-1,1.7-1.6,2.4c0.2-1.2-0.7-0.6-0.8-1.5
				c-0.4,1.2-0.9,2.7-1.6,4.1c-0.7,1.4-1.7,2.8-2.8,3.8c0.2-0.7,0.4-1.3,0.6-2c-1.7,1.5-2.3,2.8-2.8,4.2c-0.6-1.2-0.4-1-0.1-3
				c-0.5,1.3-3,1.9-2.3,2.5l0.2,0.1c-0.4,0.2-1.1,1.1-1.6,1.5c0.2-0.6,0.5-1.3,0.7-1.9c-1.2,1.2-3.4,3.7-2,3.3
				c-2,2.3-1.5-0.2-2.6,0.4c-1.4,1.3-1.2,1.4-0.9,1.5c0.1,0,0.3,0.1,0.3,0.2c0,0.2-0.2,0.5-0.9,1.1l0.1-0.1
				c-1.3,1.4-2.9,1.7-4.3,2.1c0.2-0.1,0.4-0.3,0.5-0.5c-1.3,0.4-2.6,0-4,1.2l1.4,0c-0.6,0.3-1.1,0.3-1.5,0.5c-0.3,0.2-0.3,0.5,0,0.6
				c-1,0.3-2,1-1.8,0.3c-0.9,0.4-0.6,0.8-0.2,1c-1.3,0.2-0.4-0.2-0.6-0.7c-1.3,0.9-2,1.8-3.7,2c0.3-0.4,1-0.8,0.3-0.8
				c-3.2,1.3,0.3,0.8-2.1,2.1c0.4-0.5,0.4-0.7,0.2-1l-2.4,2.1c0.2-0.3,0.6-0.6,0.3-0.6c-0.4,0.1-0.7,0.3-0.9,0.5
				c-0.2,0.2-0.5,0.5-0.8,0.6l0.8-0.2c-1.7,0.9-2.1,0.6-2.4,0.3c-0.3-0.3-0.4-0.5-1.9,0.2l0.1,0.6c-0.3-0.3-1-0.1-1.8,0.1
				c-0.4,0.1-0.8,0.2-1.3,0.2c-0.2,0-0.3,0-0.5,0l0,12.4c-0.2,0.2-0.2,0.4,0,0.6c-0.7,0.6-1.5,1,0.9,1.5c0.8-0.4,3-0.8,3.5-0.1
				l0.1-0.6c1.6-0.1,1.7,0.2,1.8,0.5c0.1,0.2,0.2,0.4,0.8,0.4c0.3,0,0.6,0,1-0.1c0.2-0.1,0.5-0.1,0.9-0.2c-0.2,0-0.4,0-0.6,0
				c0.4-0.2,0.8-0.7,1.6-0.6c0.3,0.1-0.2,0.3-0.5,0.5c0.4-0.2,0.9-0.4,1.5-0.6c0.5-0.2,0.9-0.4,1.4-0.6c0.2,0.4,0,0.6-0.5,0.9
				c1.3-0.1,1.2-0.4,1.1-0.7c-0.1-0.3-0.1-0.5,1.7-0.5c0.7,0.2-0.2,0.4-0.7,0.6c1.7,0.4,2.9-0.1,4.7-0.9c0.2,0.5-1.1,0.8,0.6,0.7
				c-0.4-0.2-0.7-0.6,0.4-1c-0.4,0.7,1,0,2.1-0.4c-0.3-0.1-0.3-0.3,0-0.6c0.5-0.3,1-0.4,1.6-0.9c-0.5,0.1-1,0.2-1.5,0.3
				c0.7-0.7,1.3-1.1,2-1.4c0.6-0.3,1.3-0.6,1.9-1c0,0.2-0.1,0.4-0.3,0.6c1.2-0.9,2.6-1.7,3.5-3.5l-0.1,0.2c0.9-1.6,0.6-1.5,0.3-1.5
				c-0.3,0-0.5,0,0.5-1.8c0.4-0.5,0.7-0.1,1.1,0.1c0.3,0.2,0.7,0.1,1.3-1.4c-0.6,0.5-0.6-0.1-0.3-1c0.3-0.9,0.7-2.1,1.1-2.9l0,2.1
				c0.4-0.6,0.8-1.8,1.1-2l-0.3-0.1c-0.9-0.4,1.3-1.8,1.5-3.2c0.2,2,0,1.9,0.9,2.8c0-0.7,0.1-1.4,0.3-2.2c0.1-0.2,0.1-0.4,0.2-0.6
				c0-0.1,0.1-0.2,0.2-0.4c0.1-0.1,0.1-0.3,0.2-0.4c0.2-0.5,0.4-1.1,0.7-1.6c0.1,0.7,0.1,1.4,0,2.4c0.6-0.9,0.8-1.8,1-2.4
				c0.1-0.3,0.1-0.6,0.2-0.9c0.1-0.3,0.2-0.6,0.3-0.9c0.2-0.6,0.6-1.3,0.9-2c0.3-0.6,0.7-1.2,1-1.7c-0.1,1,0.8,0.6,0.4,1.7
				c0.6-0.5,1.3-1,2.1-1.5c-0.1,0.4-0.2,0.7-0.2,1.1c0.5-1.2,1.9-1.3,1.2-2.2c-0.2,0.3-0.1,0.4-0.6,0.6c-0.1-0.3,0-1.1,1.4-1.7
				c1-0.2-0.3,0.6,0,0.8c0.7-0.8,1-0.2,1.8-1l-1,0c0.3-0.9,1.5-0.8,2.2-1.5c-0.9,0.8-0.4,0.9,0.2,1l-0.1,0c0.6-0.4,1.2-1.2,1.9-1.2
				l-0.1,1.1c0.2-0.4,0.4-0.7,0.6-1.1c0.4-0.1,0.8-0.1,0.3,0.5c1.6-0.8,1.3-1.2,1.2-1.5c-0.1-0.2-0.1-0.4,0.1-0.7
				c0.1-0.1,0.3-0.3,0.6-0.5c0.3-0.2,0.6-0.4,1.2-0.9c0.1,0.1,0.1,0.4-0.2,0.7c-0.2,0.3-0.5,0.6-1.1,0.9c0.2,0.5,0.6,0.6,1.7-0.2
				c0.1,0,0,0,0.1,0.1c1.4-1.3,2-2.9,2.4-4.2c0.2-0.7,0.3-1.3,0.4-1.9c0-0.3,0-0.5,0-0.7c0-0.2,0-0.4,0-0.6c0.3-0.3,0.4,0.1,0.5,0.6
				c0.4-1,0.5-1.7,0.7-2.5c0.2-0.8,0.4-1.5,1.2-2.6l-0.8,1c0-0.2,0.1-0.4,0.1-0.7c0-0.1,0.1-0.2,0.1-0.4c0-0.1,0.1-0.3,0.1-0.3
				c0.1-0.3,0.3-0.7,0.6-1.2c0.3-0.5,0.8-1.1,1.2-1.8c0.2-0.3,0.4-0.7,0.5-1c0.1-0.3,0.3-0.5,0.4-0.7c0,0.2,0.1,0.4,0.1,0.6
				c0-1.1,0.2-2.1,0.4-2.2c0.1,0,0.2-0.1,0.4-0.3c0.2-0.2,0.3-0.4,0.4-0.6c-0.3,0.2-0.4,0.1-0.5,0c-0.1-0.1-0.3,0-0.6,0.2
				c0.2-0.4,0.7-1,1.1-1.8c0.1-0.2,0.2-0.4,0.3-0.6l0.2-0.5c0.1-0.3,0.3-0.7,0.4-1l0.9,0.1l0.3-1c0.1-0.3,0.2-0.5,0.4-1
				c-0.3,0.2,0.1-0.4,0.3-0.9c0.3-0.6,0.4-0.6,0.4-0.9c0-0.1,0-0.1-0.1-0.2c0.2,0,0.4,0,0.4,0.1c0,0.1,0,0.1,0,0.2
				c0,0.1,0,0.1,0,0.2c0,0.1,0.1,0.3,0.2,0.4c0-0.1,0-0.1,0-0.2c0,0,0.1-0.1,0.3-0.2c0.1-0.1,0.3-0.3,0.7-0.7c0.6,0,1.4-0.3,2.1-0.7
				c0.2-0.2,0.3-0.4,0.4-0.7c0.1-0.2,0.2-0.4,0.3-0.6c0.1-0.4,0.3-0.7,0.4-1.1c0.2-0.7,0.3-1.5,0.3-2.1c0,0.2,0.1,0,0.2,0.2
				c-0.3-1.9,0.4-4.1-0.5-5.6c0,0.1,0.1,0.1,0.1,0.1c-0.3-0.4-0.2-1.2,0-1.7c0.1-0.3,0.3-0.5,0.4-0.6c0.1-0.1,0.3-0.2,0.4-0.2
				c0.1-0.2,0.3-0.3,0.3-0.5c0.1-0.1,0-0.2,0-0.3c-0.1-0.2-0.4-0.2-0.5-0.4c0.5-0.3,0.9-0.6,1.3-0.9c0.4-0.3,0.6-0.6,0.9-0.8
				c0.4-0.5,0.7-0.8,0.8-1.1c0.4-0.6,0.5-1.3,1.2-3.2c0.5-0.3,0.8-0.3,0.9-0.1c0.1,0.2,0.1,0.5,0.1,0.9c0,0.3,0,0.7,0.1,0.8
				c0.1,0.1,0.4,0,0.9-0.5c-0.1-0.3,0-0.8,0.3-1.3c0.3-0.5,1.3-1.3,2.2-2.4c0.5-0.4,1-1.1,1.4-1.5c0.4-0.5,0.9-1,1.4-1.6
				c0.2-0.3,0.5-0.6,0.7-0.8c0.2-0.2,0.4-0.4,0.6-0.6c0.2-0.2,0.5-0.5,0.8-0.9c0.3-0.3,0.5-0.7,0.7-1l-0.7,0
				c0.2-0.5,0.2-0.9,0.3-1.2l0.1-0.4c0-0.1,0-0.2,0.1-0.2c0-0.1,0.1-0.2,0.2-0.3c0,0.2,0,0.3,0.1,0.5c0,0.1,0.1,0.2,0.1,0.3
				c0.1,0.1,0.1,0.2,0.1,0.3c0-0.1,0-0.1,0-0.3c0-0.1-0.1-0.1-0.1-0.2c0-0.1-0.1-0.2,0.1-0.5c0.1-0.1,0.1-0.2,0.2-0.3
				c0.1-0.1,0.2-0.3,0.2-0.3c0,0,0,0,0,0c0.1-0.1,0.1-0.1,0.2-0.2c0,0,0.1,0,0.1,0c0.1,0,0.3-0.1,0.4-0.2c0.5-0.3,0.8-0.5,1-0.6
				c0.4-0.3,0.6-0.3,0.9-0.4c0.1,0,0.1,0,0.1,0l0.1,0c0.1,0,0.1,0,0.1,0c0,0,0.1,0,0.1-0.1c0,0,0-0.1,0-0.1c0,0,0-0.1,0-0.1
				c0,0,0-0.1,0.1-0.1c0.1,0,0.2,0.1,0.2,0.1c0.2-0.2,0.5-0.4,1.2-0.7c0.3-0.2,0.4-0.3,0.5-0.4c0,0,0,0,0,0c0.1,0,0.3,0.1,0.6,0.1
				c0.6,0.1,1.2,0.2,1.9,0.1c-0.3,0.2-0.7,0.5-1,0.7c-0.3-0.1-0.7-0.2-1-0.2c-0.4-0.1-0.7-0.3-0.8-0.3c0,0.2,0.2,0.4,0.7,0.5
				c0.6,0.2,1.2,0.1,1.9,0.1c0.7-0.1,1.3-0.2,1.9-0.2c1.6-0.3,0.8-0.9,1.6-1.2c0.6,0,1.4-0.3,1.8,0c1.3,0.2,0.1,0.9-0.2,1.3
				c0.5-0.4,0.9-0.6,1.5-0.7c0.6-0.1,1.3-0.1,2.7-0.3c0.2,0.4,0,0.6-0.4,0.6c0.6-0.1,1.1-0.3,1.4-0.7c0.3,0.1,0.6,0.3,1,0.4
				c0.8,0.1,1.5,0,2-0.2c0.5-0.2,0.8-0.5,1.2-0.8c0.7-0.6,1.5-1.3,3.2-2c-0.4,0.4,0.4,0.1,1.3-0.5c0.5-0.3,1-0.6,1.4-0.9
				c0.4-0.3,0.8-0.5,1.1-0.5c-0.4,0.4-0.2,0.5,0.2,0.7c0.3,0.2,0.7,0.4,0.6,0.7c1.1-0.5,1.3-0.8,1.3-1.2c0-0.4,0-0.7,0.9-1.3
				c-0.1,0.4-0.2,0.9-0.3,1.3c0.8-0.7,0.9-0.8,1-1c0.1-0.2,0.2-0.3,1.1-1c-0.4,0.5,1-0.2-0.1,0.7c1.4-0.6,1.9-0.9,2.4-1.1
				c0.5-0.3,0.9-0.5,1.4-0.6c0-0.3,0-0.6,0-1c0.3-0.1,0.5,0,0.6,0.1c0.2,0.1,0.2,0.3,0.3,0.4c-0.3,0-0.6-0.1-0.6,0.1
				c0.3,0.4,0.6,0.3,1,0.3c0.4-0.1,0.9-0.1,1.5,0.4c-0.3-0.3-0.5-0.8,0.6-0.7c-0.4,0.5,1.3,0.7,1.6,1c-0.1-0.2,0.4-0.1,1.1-0.2
				c0.7,0,1.6-0.1,1.6-0.4c1.3,0.5-0.4,0.4-0.5,0.8c0.6-0.3,1.7-0.3,2.8-0.3c1,0,2.1,0.1,2.6-0.1c0,0.1,0.1,0.1,0.1,0.1
				c0.7-0.2,1.6-0.4,2.8-0.7c0.3-0.1,0.6-0.2,0.9-0.3c0.3-0.1,0.5-0.2,0.8-0.4c0.5-0.3,1.1-0.5,1.7-0.9l-0.7,0.8
				c2.6-0.5,1.3-1.5,3.4-2.1c-0.1,0.4,0.7,0.2,1.5,0.1c0.8-0.1,1.7-0.4,1.3,0.2c1-0.6,1.8-1.2,2.4-1.9c0,0,0.1,0,0.1-0.1
				c0.2-0.1,0.4-0.2,0.6-0.2c-0.1,0.2-0.3,0.3-0.4,0.5c-0.4,0.4-0.7,0.8,0.1,0.6c0.5-0.4,1-0.7,1.6-1l0.4,0.3c0-0.3,1.5-0.8,1.4-1
				c0.4,0.4,1.2,0.6,1.2,1c0.5-0.2,1.3-0.3,2-0.5c0.2,0,0.3-0.1,0.5-0.1c0.2,0,0.4-0.1,0.4-0.1c0.2-0.1,0.5-0.2,0.7-0.3l0.1,0.2
				c0.2-0.3,0.7-0.5,1.1-0.8c0.2-0.1,0.4-0.3,0.5-0.4c0.2-0.2,0.3-0.3,0.4-0.4c0.2-0.2,0.4-0.4,0.5-0.5c0.5-0.4,0.8-0.7,0.8-1.2
				l0.9,0c1.1-0.9,0.8-1.4,0.9-1.9c0.1-0.1,0.2-0.2,0.3-0.2c0.4-0.3,0.9-0.6,1.3-0.9c0,0.4,1.9-0.8,2.4-0.9c0.2-0.2,0.6-0.5,0.9-0.8
				c0.2-0.2,0.3-0.3,0.6-0.4c0.2-0.1,0.5-0.2,0.8-0.4c0.6-0.3,1-0.8,1.1-1c-0.3,0.5-0.3,0.8-0.5,1.1c-0.1,0.1-0.2,0.3-0.4,0.4
				c-0.2,0.2-0.7,0.3-0.9,0.4c0.1,0.1,0.2,0.1,0.2,0.1c0.1,0,0.2,0,0.3,0c0.3,0,0.6-0.2,0.9-0.4c0.3-0.2,0.6-0.5,0.9-0.7
				c0.2-0.3,0.5-0.5,0.7-0.7c0.2-0.3,0.7-0.5,1.4-0.6l0.1,0.4c0.2-0.1,0.4-0.1,0.6-0.2c0.1,0,0.2-0.1,0.3-0.1c0.1,0,0.1-0.1,0.2-0.1
				c0.3-0.1,0.5-0.2,0.7-0.3c0.5-0.2,0.9-0.5,1.1-0.8c0.4-0.4,0.5-0.8,0.7-1.3c0.2-0.1,0.4-0.2,0.5-0.3c0.2,0.2,0,0.6-0.4,1.3
				c0.5-0.2,1.1-0.5,1.6-0.8c0.5-0.3,1.2-0.6,1.8-0.9c0.6-0.3,1.2-0.7,1.8-1c0.3-0.2,0.6-0.3,0.9-0.5c0.3-0.1,0.6-0.3,0.9-0.5
				c0.5-0.1,0.6-0.1,0.6,0.1c0,0.2-0.3,0.6-0.8,0.9c0.7-0.5,1.4-1.2,1.8-1.6c0.4-0.4,0.8-0.8,1.3-1.2c0.5-0.4,0.9-0.8,1.3-1.2
				c0.4-0.4,0.7-0.9,0.9-1.3c-0.2,0.7,0.9-0.4,1.8-0.7c-0.1-0.2-0.1-0.5,0-0.5c0.5-0.6,1.4-1.4,2.3-2.3c0.9-0.9,1.8-1.8,2.6-2.3
				l-0.3,0.6c0.8-0.7,1.3-1.3,1.9-1.8c0.6-0.6,1.1-1.2,1.5-1.9c0.1-0.2,0.2-0.4,0.3-0.7c0.3-0.4,0.6-0.8,0.9-1.2
				c0.8-0.8,1.6-1.4,2.4-2.2c0.5-0.1-0.1,1.1,1,0c0.2-0.4,0.1-0.7,0.1-1.1c0,0,0-0.1,0-0.1c0.4-0.4,0.8-0.8,1.1-1.2l0.3,0.4
				c0.1-0.4,0.2-0.7,0.3-1.1c0.4-0.5,0.7-1.1,0.9-1.7c0.1-0.4,0.3-0.7,0.5-1c0.3-0.4,0.5-0.8,0.8-1.1c0.2-0.2,0.3-0.5,0.5-0.7
				c0.3-0.4,0.7-0.9,1-1.4c0.9-1.4,1.7-2.1,3.1-2.9c1.3-0.7,2.9-1.1,4.3-1.4c0.5-0.1,0.9,0,1.3-0.4c0.5-0.4,0.8-1.3,1.1-1.8
				c0,0,0,0,0-0.1c0,0,0,0,0,0.1c0.1,0.2,0.1,0.5,0.1,0.9c0.1-0.2,0.2-0.4,0.3-0.6c0.3-0.6,0.5-1.2,0.9-1.7c0.4-0.3,0.7-0.6,1.1-0.8
				c0.1,0,0.3-0.1,0.4-0.1c0-0.1,0.1-0.2,0.1-0.4c0.6-0.5,1.2-1,1.9-1.3c1.1-0.5,2.3-0.7,3.4-1.1c1.3-0.5,2.6-0.8,3.9-1.2
				c0.3,0,0.5,0,0.8-0.1c0.2-0.1,0.2-0.1,0.1-0.2c0.1,0,0.2,0,0.2-0.1c0.3-0.1,0.6-0.2,0.9-0.3c-0.1,0.1-0.2,0.2-0.1,0.3
				c1.1-0.2,1.9-0.6,2.7-1.2c0.8-0.3,1.6-0.7,2.3-1.1c1.7-1.1,2.1-2.6,3.4-4c1.1-1.2,2.1-2.4,3.6-3.1c1.2-0.6,1.9-1.7,3.2-2.3
				c1.9-0.8,3.5-2.4,5.3-3.4c2.4-1.4,5-2.5,7-4.5c1.9-2,3-4.3,4.7-6.5c1.5-1.8,2.9-3.7,4.4-5.5h-1.8L272.3,4.8z M94,103.8L94,103.8
				L94,103.8L94,103.8C94,103.8,94,103.8,94,103.8C94,103.8,93.9,103.5,94,103.8L94,103.8z"/>
			<linearGradient id="SVGID_8_" gradientUnits="userSpaceOnUse" x1="63.3859" y1="-35.5903" x2="146.3454" y2="108.0998">
				<stop  offset="0" style="stop-color:#FFE029"/>
				<stop  offset="0.4401" style="stop-color:#FFDE28"/>
				<stop  offset="0.5986" style="stop-color:#FFD723"/>
				<stop  offset="0.7116" style="stop-color:#FFCC1B"/>
				<stop  offset="0.8023" style="stop-color:#FFBB0F"/>
				<stop  offset="0.8771" style="stop-color:#FFA600"/>
			</linearGradient>
			<path class="st30" d="M272.5,0.2c0.3-0.4,0.7-0.8,1.1-1.1c-0.2,0-0.4,0-0.6-0.1c-0.3,0.4-0.5,0.8-0.7,1.2H1.5v184
				c-0.1,0.1-0.1,0.2-0.1,0.3c-0.4,0-0.9,0-1,0.2c-0.1,0.1-0.1,0.2,0.1,0.5c0,0.1,0.1,0.1,0.1,0.2c0,0,0,0.1,0.1,0.1
				c0,0.1,0.1,0.1,0.1,0.2c0.1,0.1,0.2,0.2,0.3,0.4c0.1,0.1,0.3,0.2,0.5,0.4c0.1,0,0.3,0,0.6,0c0.2,0,0.5,0,0.7,0
				c0.5,0,0.9-0.1,1.3-0.2c0.8-0.2,1.4-0.3,1.8-0.1l-0.1-0.6c1.5-0.7,1.6-0.5,1.9-0.2c0.3,0.3,0.7,0.5,2.4-0.3l-0.8,0.2
				c0.3-0.2,0.5-0.4,0.8-0.6c0.2-0.2,0.5-0.4,0.9-0.5c0.3,0.1-0.1,0.4-0.3,0.6l2.4-2.1c0.3,0.3,0.3,0.5-0.2,1c2.5-1.2-1-0.8,2.1-2.1
				c0.7,0,0,0.4-0.3,0.8c1.6-0.2,2.4-1.1,3.7-2c0.2,0.5-0.7,0.9,0.6,0.7c-0.4-0.2-0.7-0.6,0.2-1c-0.2,0.7,0.8,0,1.8-0.3
				c-0.3-0.1-0.3-0.4,0-0.6c0.4-0.3,0.9-0.2,1.5-0.5l-1.4,0c1.4-1.2,2.6-0.8,4-1.2c-0.1,0.1-0.2,0.3-0.5,0.5c1.4-0.4,3-0.7,4.3-2.1
				l-0.1,0.1c0.7-0.6,0.9-0.9,0.9-1.1c0-0.2-0.1-0.2-0.3-0.2c-0.3-0.1-0.5-0.2,0.9-1.5c1.1-0.6,0.6,1.9,2.6-0.4
				c-1.4,0.4,0.9-2.1,2-3.3c-0.2,0.6-0.4,1.3-0.7,1.9c0.6-0.4,1.3-1.4,1.6-1.5l-0.2-0.1c-0.7-0.6,1.8-1.3,2.3-2.5
				c-0.3,2-0.5,1.8,0.1,3c0.5-1.3,1.1-2.7,2.8-4.2c-0.2,0.7-0.4,1.3-0.6,2c1.2-0.9,2.1-2.3,2.8-3.8c0.7-1.4,1.2-2.9,1.6-4.1
				c0.2,1,1,0.3,0.8,1.5c0.6-0.8,1.1-1.6,1.6-2.4l0.2,1.1c0-1.5,1.2-2.3,0.2-2.6c0,0.3,0.1,0.4-0.2,0.8c-0.2-0.2-0.5-1,0.3-2.2
				c0.7-0.7,0.1,0.7,0.5,0.6c0.1-1,0.7-0.8,0.9-1.8c-0.3,0.2-0.5,0.4-0.8,0.6c-0.2-0.9,0.7-1.4,0.9-2.4c-0.2,1.1,0.2,1,0.7,0.7
				l-0.1,0c0.3-0.7,0.3-1.7,0.8-2l0.5,0.9c-0.1-0.4-0.1-0.8-0.2-1.2c0.2-0.3,0.6-0.5,0.5,0.2c0.9-1.4,0.4-1.6,0-1.8
				c-0.4-0.2-0.6-0.6,0.4-2.4c0.3,0.2,0.4,0.7-0.2,1.7c0.4,0.3,0.8,0.2,1.3-0.9c0,0,0.1,0,0.1,0c0.4-1.1,0.7-2.3,1-3.4
				c0.2-1.1,0.4-2.3,0.3-3c0.3-0.3,0.4,0.1,0.5,0.6c0.4-1,0.5-1.6,0.7-2.4c0.2-0.7,0.4-1.4,1.1-2.3c-0.2,0.3-0.5,0.5-0.7,0.8
				c0.1-1.5,1.5-4,2.8-4.7l-0.1,0.5c0.4-1.5,2.5-2.8,2.6-3.5c-0.6,0.3-0.3-0.3-1.1,0.3l1.9-3.3l0.9,0.3l1-1.8
				c-0.6,0.2,1.9-2.1,1.2-2.6c0.9-0.8,0.3,0.8,0.3,1.3c0.5-1.1,0.8-1,1.1-2.1l1.3-0.5l1.3-2.7c0,0.2,0.1,0,0.1,0.2
				c0.3-1.5,2.3-2.5,2.5-4.5c0,0.1,0,0.1,0,0.1c0.1-1.1,1.9-2.6,2.5-3.1c0.9-1.2-0.1-0.9-0.3-1.2c1.6-1.5,2.1-2,2.5-2.5
				c0.4-0.5,0.7-1,1.8-2.6c1.2-0.4,0.9,0.4,0.7,1c-0.2,0.6-0.4,1.2,0.9,0.5c0-0.6,1.2-2.2,2.8-3.4c0.8-0.3,2-0.6,3.3-0.9
				c0.7-0.1,1.4-0.2,2-0.3c0.7-0.1,1.3-0.2,1.8-0.2l-0.4-0.5c0.8-0.4,1.7-0.8,2.5-1.3c-0.4,0.5-0.8,0.9-1.2,1.4
				c0.3-0.4,1.5-1.2,2.3-1.7c2.6-1.4,2,0.8,3.9-0.7c0.1,0,0.2,0.1,0.3,0.1c0.6-0.7,2.5-1,4.6-1.7l-0.6,1l-1.4,0.2
				c0.9,0.6,2.3-0.7,3.7-1c1.4-0.6,0.5-1.1,1.2-1.5c0.5-0.1,1.3-0.5,1.7-0.4c1.3-0.1,0.3,0.9,0,1.3c0.9-1,1.3-1,3.7-1.9
				c0.2,0.3,0.1,0.6-0.2,0.7c0.5-0.2,0.9-0.5,1.1-0.9l0.9,0.3c2.9,0,2.4-2,5.8-2.5c-0.8,0.6,2.9-0.7,4-0.5c-1.1,0.4,0.8,1,0.2,1.6
				c2.7-0.3,0.9-1.2,3-1.8l-0.6,1.2c2-0.9,0.4-0.6,2.4-1.5c-0.5,0.4,1,0-0.2,0.6c2.8-0.6,2.1-0.5,4.5-1l-0.1-1
				c0.8-0.3,1.2,0,1.5,0.1c-0.3,0.1-0.9,0.2-0.8,0.3c1.2,0.5,1.4-0.9,2.7-0.5c-0.4-0.2-0.8-0.5,0.2-0.9c-0.1,0.6,1.3,0.1,1.8,0.2
				c-0.3-0.2,2.2-0.9,2.1-1.5c1.3,0-0.2,0.6-0.2,0.9c0.7-1,3.9-1.4,4.6-2.1c0,0,0.1,0.1,0.1,0.1c1-0.8,3-1.5,5.2-2.9l-0.7,0.8
				c2.5-0.5,1.1-1.6,3.1-2.2c-0.1,0.4,0.7,0.1,1.5-0.2c0.8-0.3,1.5-0.6,1.2,0c0.8-0.7,1.6-1.3,2.2-1.9c0.2-0.1,0.5-0.2,0.7-0.3
				c-0.3,0.5-1.4,1.5-0.3,1.1l1.4-1.1l0.5,0.2c-0.1-0.3,1.3-1,1.2-1.2c0.5,0.3,1.3,0.4,1.3,0.8c1-0.6,2.6-0.8,3.3-1.5l0.2,0.2
				c0.6-1.3,3.1-1.4,3.3-2.5l0.8,0.2c1.2-0.5,1.1-1.1,1.3-1.6c0.6-0.2,1.2-0.5,1.8-0.8c-0.1,0.4,2-0.4,2.5-0.3
				c0.4-0.2,1.2-0.7,1.9-1.2c0.6-0.4,1.1-0.9,1.3-1.3c-0.4,0.8,0.2,0.9-1.3,1.9c1.4,0.2,2.4-1.8,4.2-2.9l0.2,0.4
				c1.2-0.9,1.6-1.5,2-2c0.3-0.4,0.4-0.8,0.6-1.2c0.2-0.1,0.4-0.2,0.5-0.3c0.2,0.3,0,0.6-0.4,1.3c1-0.3,2.2-0.9,3.4-1.8
				c0.3-0.2,0.6-0.5,0.8-0.7c0.2-0.2,0.5-0.5,0.7-0.7c0.5-0.4,0.9-0.9,1.4-1.2c0.8-0.2,0.6,0.3,0.1,0.9c0.8-0.9,1.7-1.8,2.6-2.6
				c0.9-0.9,1.6-1.8,1.8-2.6c-0.1,0.7,0.9-0.5,1.6-1c-0.1-0.1-0.2-0.4-0.1-0.5c0.4-0.7,1-1.6,1.8-2.5c0.8-0.9,1.8-1.6,2.6-2
				l-0.3,0.6c1.6-1.1,2.4-2.3,3.4-3.4c0.2-0.2,0.3-0.4,0.5-0.6c1.2-1,2.2-2,3.4-2.9c0.4-0.1-0.1,1.1,0.9,0.1c0.2-0.4,0.1-0.7,0.2-1
				c0,0,0-0.1,0-0.1c0.4-0.3,0.9-0.6,1.3-0.9l0.2,0.4c0.2-0.3,0.4-0.6,0.6-0.9c0.8-0.5,1.7-0.9,2.6-1.3c0.8-0.3,1.5-0.7,2-1.1
				c0.4-0.3,0.9-0.5,1.3-0.8c1.6-1.2,2.8-2.6,4.6-3.5c1.4-0.7,3.1-1.2,4.5-2c0.3-0.2,0.6-0.5,0.9-0.7c0,0.3,0,0.6-0.3,1
				c0.9-0.6,1.1-1.3,1.5-1.9c0-0.1,0.1-0.1,0.1-0.2c0.4-0.3,0.8-0.5,1.2-0.7c0.1,0,0.2,0,0.4,0c0-0.1,0.1-0.2,0.2-0.3
				c0.8-0.4,1.6-0.8,2.4-1.2c2.1-1,3.9-2.5,5.8-3.8c0.3-0.1,0.5-0.1,0.7-0.3c0.1-0.1,0.1-0.2,0.1-0.2c0.3-0.2,0.6-0.4,0.9-0.6
				c-0.1,0.1-0.1,0.2,0,0.3c0.9-0.5,1.6-1,2.3-1.6c1.9-1,3.9-1.8,5.7-3.1c2.8-1.9,6-2.8,8.8-4.8c2.1-1.5,4.2-2.8,6-4.7
				c1.3-1.4,2.8-2.4,4.4-3.5c2.3-1.5,3.8-3.5,5.6-5.6c1.3-1.7,2.3-4.1,4-5.4H272.5z"/>
		</g>
	</g>
</g>
<g>
	<g>
		<g>
			
				<image style="overflow:visible;opacity:0.3;" width="197" height="122" xlink:href="ACA689F1.png"  transform="matrix(1 0 0 1 49 48)">
			</image>
			<g>
				<path class="st31" d="M74,110.1l126,20.2l8.5-52.8l-126-20.2L60.1,80.8L74,110.1z M75.9,78.4c2.6,0.4,4.4,2.9,4,5.5
					c-0.4,2.6-2.9,4.4-5.5,4c-2.6-0.4-4.4-2.9-4-5.5C70.8,79.8,73.3,78,75.9,78.4z"/>
			</g>
		</g>
		
			<radialGradient id="SVGID_9_" cx="1351.2014" cy="7944.1499" r="29.934" fx="1323.9668" fy="7944.6772" gradientTransform="matrix(0.5 0.866 -0.2324 0.1342 1217.6863 -2152.7268)" gradientUnits="userSpaceOnUse">
			<stop  offset="0" style="stop-color:#FFA600"/>
			<stop  offset="0.1413" style="stop-color:#FFA600;stop-opacity:0.8587"/>
			<stop  offset="1" style="stop-color:#FFA600;stop-opacity:0"/>
		</radialGradient>
		<path class="st32" d="M62,109.4c-3.8,2.2-13.7-7.6-21.9-21.9c-8.3-14.3-11.9-27.7-8-29.9c3.8-2.2,13.7,7.6,21.9,21.9
			C62.3,93.8,65.9,107.2,62,109.4z"/>
		<g>
			<g>
				<g>
					<defs>
						<path id="SVGID_10_" d="M72.1,80.7l0.3,0.1l0.1,0c0.8,0.3,1.2,1.1,1,1.9c-0.3,0.8-1.1,1.2-1.9,1l-0.3-0.1L72.1,80.7z"/>
					</defs>
					<clipPath id="SVGID_11_">
						<use xlink:href="#SVGID_10_"  style="overflow:visible;"/>
					</clipPath>
					<g style="clip-path:url(#SVGID_11_);">
						
							<image style="overflow:visible;" width="7.5" height="5" xlink:href="E27EEBCE.png"  transform="matrix(1 0 0 1 70.5358 80.5111)"/>
					</g>
				</g>
				
					<image style="overflow:visible;" width="57.7" height="74.2" xlink:href="E27EEBD2.png"  transform="matrix(1 0 0 1 14.6941 9.4791)"/>
				<g>
					<defs>
						<path id="SVGID_12_" d="M15.1,9.8l0-0.3c0.1-0.8,0.8-1.4,1.6-1.4c0.8,0.1,1.4,0.8,1.4,1.6l0,0.1l0,0.3L15.1,9.8z"/>
					</defs>
					<clipPath id="SVGID_13_">
						<use xlink:href="#SVGID_12_"  style="overflow:visible;"/>
					</clipPath>
					<g style="clip-path:url(#SVGID_13_);">
						
							<image style="overflow:visible;" width="3.5" height="7.3" xlink:href="E27EEBD5.png"  transform="matrix(1 0 0 1 15.0427 3.4944)"/>
					</g>
				</g>
			</g>
		</g>
	</g>
	<g>
		<text transform="matrix(0.9886 0.1505 -0.1505 0.9886 114.4566 86.2224)" class="st15 st27 st33">SUPER</text>
		<text transform="matrix(0.9886 0.1505 -0.1505 0.9886 111.4955 106.3507)" class="st15 st27 st33">OFFER</text>
	</g>
</g>
<g>
	<g>
		<defs>
			<path id="SVGID_14_" d="M613.3,67.2c0,0,0.6,10.6,4,18.3c0,0,4.8,13.9,23.2,14.3c0,0,18.3,0.1,22.5-18.9c0,0,3.5-11.5,1.9-17.7
				l0.3-0.6c0,0,4.4-4.4,6.2,0.8c0,0,0.6,1.7-1.6,4.6c-2.2,2.9-0.2,3.6,0.8,5c0.9,1.4,6.4,2.5,7.8,4c1.4,1.5,0.1,3.3-4,5.9
				c-4.1,2.5-2.2,6.2-1.2,7c1,0.8,6.7,3,2.7,7.6l-2.2,1.7l-3.6,2.2c0,0-0.6,1-0.5,1.5c0.1,0.6,2,3.2,5.1,6.6
				c3.1,3.4,1.1,6.1,0.9,6.5c-0.2,0.4-2.5,4-7.1,5.3l1.8,4.2c0,0,4,5.5,1.8,9c-2.2,3.5-9.9,1.7-9.9,1.7s-0.7-0.4-0.9,0.7
				c-0.2,1.1-0.7,3.5-0.2,5.3c0.4,1.8-1.2,3.3-4.7,4.7c-3.5,1.4-4.7-1.9-6.8-1.2c-2.1,0.7-2,3.1-2.3,4.1c-0.3,1,0.1,4.3-3,5.4
				c-3.1,1.1-7.5-0.7-10.5-2.9c-3-2.2-3.3-4.5-3.3-4.5s-5.6,2.9-9.3,1.9c-3.7-0.9-5.7-1.5-6.5-8.7c0,0-0.2-3.8-4.1-3.8
				c0,0-5.9,0.7-7.9-3.5c-2.1-4.3-0.6-5.3-0.1-6.9c0.4-1.6,2.3-5.9-0.9-8.2c0,0-4.8-2.7-3.7-6.2c1-3.5,3.8-5.3,4.7-5.9
				c0.9-0.6,3-2.9,2.7-4c-0.3-1.1-3.1-4.7-3.5-5.3c-0.3-0.6-1.6-3.3,0.5-6.8c0,0,2.9-3.9,3.9-4.4c0.9-0.5,2.9-2.5,2.6-3.6
				c-0.3-1.1-2.3-3-2.7-4.8c-0.4-1.7-0.7-4,2.9-6.9C612.6,67.6,613.3,67.2,613.3,67.2z"/>
		</defs>
		<clipPath id="SVGID_15_">
			<use xlink:href="#SVGID_14_"  style="overflow:visible;"/>
		</clipPath>
		<path class="st34" d="M613.3,67.2c0,0,0.6,10.6,4,18.3c0,0,4.8,13.9,23.2,14.3c0,0,18.3,0.1,22.5-18.9c0,0,3.5-11.5,1.9-17.7
			l0.3-0.6c0,0,4.4-4.4,6.2,0.8c0,0,0.6,1.7-1.6,4.6c-2.2,2.9-0.2,3.6,0.8,5c0.9,1.4,6.4,2.5,7.8,4c1.4,1.5,0.1,3.3-4,5.9
			c-4.1,2.5-2.2,6.2-1.2,7c1,0.8,6.7,3,2.7,7.6l-2.2,1.7l-3.6,2.2c0,0-0.6,1-0.5,1.5c0.1,0.6,2,3.2,5.1,6.6c3.1,3.4,1.1,6.1,0.9,6.5
			c-0.2,0.4-2.5,4-7.1,5.3l1.8,4.2c0,0,4,5.5,1.8,9c-2.2,3.5-9.9,1.7-9.9,1.7s-0.7-0.4-0.9,0.7c-0.2,1.1-0.7,3.5-0.2,5.3
			c0.4,1.8-1.2,3.3-4.7,4.7c-3.5,1.4-4.7-1.9-6.8-1.2c-2.1,0.7-2,3.1-2.3,4.1c-0.3,1,0.1,4.3-3,5.4c-3.1,1.1-7.5-0.7-10.5-2.9
			c-3-2.2-3.3-4.5-3.3-4.5s-5.6,2.9-9.3,1.9c-3.7-0.9-5.7-1.5-6.5-8.7c0,0-0.2-3.8-4.1-3.8c0,0-5.9,0.7-7.9-3.5
			c-2.1-4.3-0.6-5.3-0.1-6.9c0.4-1.6,2.3-5.9-0.9-8.2c0,0-4.8-2.7-3.7-6.2c1-3.5,3.8-5.3,4.7-5.9c0.9-0.6,3-2.9,2.7-4
			c-0.3-1.1-3.1-4.7-3.5-5.3c-0.3-0.6-1.6-3.3,0.5-6.8c0,0,2.9-3.9,3.9-4.4c0.9-0.5,2.9-2.5,2.6-3.6c-0.3-1.1-2.3-3-2.7-4.8
			c-0.4-1.7-0.7-4,2.9-6.9C612.6,67.6,613.3,67.2,613.3,67.2z"/>
		<g class="st35">
			<path class="st36" d="M594.8,90.8c26.6,17.7,65.6,25.9,89.6-0.7c2.1-2.3-1.1-5.9-3.2-3.6c-22.5,24.9-58.8,16.8-83.7,0.2
				C594.9,85.1,592.2,89.1,594.8,90.8L594.8,90.8z"/>
		</g>
		<g class="st35">
			<path class="st36" d="M595,106.7c12.4,7,27.2,10.1,41.3,11.3c13.8,1.2,30.2,0.3,41.4-8.9c2.4-2-0.8-5.5-3.2-3.6
				c-10.2,8.4-25.4,8.6-37.9,7.7c-13.2-0.9-27.3-3.9-38.9-10.5C594.9,101.2,592.3,105.2,595,106.7L595,106.7z"/>
		</g>
		<g class="st35">
			<path class="st36" d="M591.1,118.3c29.7,11.8,64.5,14.8,93.8,0.2c2.8-1.4,0.6-5.7-2.2-4.3c-28.2,14.1-61.5,10.8-90.1-0.5
				C589.7,112.6,588.2,117.2,591.1,118.3L591.1,118.3z"/>
		</g>
		<g class="st35">
			<path class="st36" d="M592.4,128.3c14.8,7.7,31.6,11.3,48.1,12.4c16.6,1.2,35.1-0.3,49.5-9.4c2.6-1.6,0.4-5.9-2.2-4.3
				c-13.4,8.5-30.2,9.8-45.7,9c-16-0.8-32.8-4.3-47.1-11.7C592.3,122.8,589.7,126.8,592.4,128.3L592.4,128.3z"/>
		</g>
		<g class="st35">
			<path class="st36" d="M603.7,145.4c23.1,7.3,47.4,8,70.6,0.7c2.9-0.9,1.9-5.6-1-4.7c-22.4,7.1-45.7,6.6-68-0.5
				C602.2,139.9,600.7,144.5,603.7,145.4L603.7,145.4z"/>
		</g>
	</g>
	<path class="st37" d="M669.5,102.8c-0.1-0.6,0.5-1.5,0.5-1.5l3.6-2.2l2.2-1.7c4-4.6-1.7-6.7-2.7-7.6c-1-0.8-2.9-4.5,1.2-7
		c4.1-2.5,5.4-4.3,4-5.9c-1.4-1.5-6.9-2.6-7.8-4s-3-2.1-0.8-5c2.2-2.9,1.6-4.6,1.6-4.6c-1.8-5.2-6.2-0.8-6.2-0.8l-0.3,0.6
		c0.3,1.2,0.4,2.5,0.4,4c3.8,6.4,6.5,15.2,1.6,20.4c1.6,4.2,0.4,8.5-2.8,11.9c2.4,3.7,4.7,7.8,4.7,12.1c0,4.1-2.2,6.5-5.1,7.8
		c0.8,2.2,1.3,4.5,1.3,7c0.1,2.9-2.9,4.8-5.5,4.5c-1.5,5.3-6.6,8.4-12,7.6c-1.3,2.9-3.5,5.4-7.1,5.1c-3.7-0.3-5.8-3-9.1-4.2
		c0,0-0.1,0-0.1-0.1c-0.1,0.2-0.3,0.3-0.5,0.6c-0.7,0.7-1.4,1.3-2.2,1.9c-2,1.4-4.7,1.8-7,1c-3.1-1-5.2-3.8-6-6.9
		c-3.5-0.4-6.5-2.1-7.9-6c-1-3-0.5-6.2,0.7-9c-2.7-2.2-4.3-5.3-3.2-9.4c0.9-3.4,3-6.3,5.4-9c-2.4-3-3.7-6.6-2.8-10.6
		c0.8-3.2,2.8-5.6,5.3-7.2c-1.8-4-1.8-8.5,0.8-12.5c-0.4-2.9-0.5-5-0.5-5s-0.7,0.4-4.2,3.3c-3.6,2.9-3.3,5.1-2.9,6.9
		c0.4,1.7,2.3,3.6,2.7,4.8s-1.6,3.1-2.6,3.6c-0.9,0.5-3.9,4.4-3.9,4.4c-2.2,3.4-0.9,6.1-0.5,6.8c0.3,0.6,3.2,4.2,3.5,5.3
		c0.3,1.1-1.9,3.4-2.7,4c-0.9,0.6-3.7,2.4-4.7,5.9c-1,3.5,3.7,6.2,3.7,6.2c3.2,2.3,1.3,6.6,0.9,8.2c-0.4,1.6-1.9,2.6,0.1,6.9
		c2.1,4.3,7.9,3.5,7.9,3.5c3.9,0,4.1,3.8,4.1,3.8c0.8,7.3,2.8,7.8,6.5,8.7c3.7,0.9,9.3-1.9,9.3-1.9s0.3,2.3,3.3,4.5
		c3,2.2,7.4,4,10.5,2.9c3.1-1.1,2.7-4.4,3-5.4c0.3-1,0.1-3.4,2.3-4.1c2.1-0.7,3.4,2.6,6.8,1.2c3.5-1.4,5.1-2.9,4.7-4.7
		c-0.4-1.8,0-4.2,0.2-5.3c0.2-1.1,0.9-0.7,0.9-0.7s7.7,1.8,9.9-1.7c2.2-3.5-1.8-9-1.8-9l-1.8-4.2c4.6-1.3,6.9-4.9,7.1-5.3
		c0.2-0.4,2.2-3.1-0.9-6.5C671.5,106,669.6,103.3,669.5,102.8z"/>
	<path class="st38" d="M614.3,65.3l2.7,0.5l1,4.1c0,0,0.1,8,1.2,10.4c1.1,2.4,3.2,8.7,9.7,12.3c6.5,3.5,12.7,3.7,18.7,0.9
		c6.1-2.7,9.3-6.9,10.7-11c1.3-4.1,2.7-13,2.7-16c0.1-3,1.5-6.8,2.6-6.1c1.1,0.7,2.2,4.2,1.6,9.3c-0.6,5.1-3.3,18.3-8.6,23.6
		c-5.3,5.3-10.5,6.9-19.2,6.2c-8.8-0.7-14.5-4.9-18.3-9.9l-3.4-8.1l-1.8-7.7C613.9,73.7,611.9,65.9,614.3,65.3z"/>
	<path class="st19" d="M613.3,65.3c0,0-9.4,1-10.6,12.2c0,0,0.3,3.1,3.2,4.3l-6.3,8.3c0,0-5.6,5.2,2.8,12.2c0,0-7.7,1.4-7.5,11.5
		c0,0,1.5,5.7,7,7.5c0,0-7.6,5.2-2.3,14.3c0,0,1.6,3.5,11.1,3.4c0,0,1.7-0.3,1.7,3.8c0,4.1,2.8,9.4,7.7,10.3
		c4.8,0.9,7.2-1.2,9.7-2.8l0.3,0.4c0,0,1.7,8.3,11.8,7.8c10.1-0.5,9-9.3,8.9-9.7c-0.1-0.3,4.8,5.4,12.3-1.2c0,0,3.9-3,1.4-8.4
		c0,0,6,2.6,11.6-4.7c0,0,4.3-6.7-3.7-12.5l3.2-2c0,0,6.2-2.9,3.1-11.5c0,0-3.7-5.5-6.4-6.1c0,0,8.7-1.4,8.6-7.8
		c0,0,0.7-5.9-6.2-9.3c0,0,7.3-2.5,6.3-8.4c-1.1-5.9-6.2-7.7-9.3-7.4c0,0,5.1-6.7,2.1-9c-2.9-2.3-7.2-1.5-8.9-0.2
		c-1.7,1.3-0.3,0.1-0.3,0.1l0.3,1.2l0.5,0.9c0,0,3.3-3.3,5.5-0.4c2.2,2.9-0.6,5-0.9,5.8c-0.4,0.8-2.5,2,1.1,5.4c0,0,2.2,1.3,6.7,2.9
		c0,0,2.8,1.1,0.3,4.1c-2.6,3-6.1,1.9-5.8,7.4c0,0,0.6,2.3,2.3,3.1c1.6,0.8,3.4,1.7,2.8,4.2c-0.5,2.5-1.9,3.3-6.2,5.6
		c0,0-3.7,2.1,1,5.7c4.7,3.6,4.3,4.6,4.4,5.7c0.1,1,0.4,4-3,6.7c-3.4,2.7-4.7,2.5-4.7,2.5s3.7,6.5,4.1,10.4
		c0.4,3.9-3.3,6.3-10.2,4.5l-1.2,0c0,0-0.9,4-0.3,5.1s0.1,3.5-3.5,5c-3.5,1.4-7.7-0.9-7.7-0.9s-1.4-0.3-1.9,2.2
		c-0.4,2.5-0.1,6.8-5.5,7.9c-5.4,1.1-11.3-6-12-7.8c0,0-9,4.4-13.1,0.7c0,0-1.7-0.5-2.5-6.9c0,0,0.8-4.1-4.9-4.5
		c0,0-7.6,0.4-8.3-6.2l0.7-3.7c0,0,2.2-4.8,0.9-6.5c-1.3-1.7-4.9-4.7-5.2-6.6c-0.3-1.9,0.8-4.5,3.1-6.4c2.3-2,4-3.6,4.1-4.5
		c0-1-0.5-2.1-0.5-2.1s-3.6-4.3-3.5-6.2c0.1-1.9,1.6-5.3,4-7.9c2.5-2.6,4-2.8,3.7-4.5c-0.3-1.7-1.9-2-2.7-4.8
		c-0.7-2.8,0.7-5.2,3.4-7.4c2.8-2.2,3.6-3.3,3.6-3.3L613.3,65.3z"/>
	<path class="st39" d="M616.6,105.4c0,0,0.9-3.6,2.5-3.2c1.6,0.3,1.5,2.2,1.5,2.6c0.1,0.5-0.7,5.1-2.3,5.9c-1.6,0.8-4.1-1.4-5.2-2.5
		c-1.1-1.1-2.8-3.4-0.7-4.2C614.6,103,616.3,105,616.6,105.4z"/>
	<path class="st39" d="M659.5,107.1c0,0,2.6-2.9,3.7-2c1.1,0.9,0.8,1.3,0.7,1.4c0,0.1,0.4,1.7-2.6,4c-3,2.3-3.1,1.5-3.6,1.4
		c-0.4-0.1-3.3-3.2-2.9-6.8c0,0-0.1-1.8,1.8-1.7C658.5,103.4,659.3,105.8,659.5,107.1z"/>
	<g>
		<path class="st15" d="M613.5,106.9c0.9,0.5,1.5,1.3,2.2,1.9c0.6,0.5,1.5-0.3,0.9-0.8c-0.8-0.7-1.5-1.6-2.4-2.1
			C613.5,105.5,612.8,106.5,613.5,106.9L613.5,106.9z"/>
	</g>
	<g>
		<path class="st15" d="M656.1,106.5c0.4,0.8,0.7,1.7,1.2,2.5c0.4,0.7,1.4,0.1,1.1-0.6c-0.4-0.8-0.7-1.7-1.2-2.5
			C656.8,105.2,655.7,105.8,656.1,106.5L656.1,106.5z"/>
	</g>
	<g>
		<path class="st15" d="M657.2,97.9c3.4-2.3,5.3-5.7,6.7-9.5c0.3-0.7-0.9-1.1-1.1-0.4c-1.3,3.4-3,6.7-6.1,8.8
			C656,97.3,656.6,98.3,657.2,97.9L657.2,97.9z"/>
	</g>
	<path class="st19" d="M607.8,29.7c0,0,10.5-5.5,15.9-0.5c0,0,5.9,6.6,1,12.1c0,0-3,2.9-11.3,5c0,0-8.5,1.7-6.1,7.3l3,2.9
		c0,0,6,3,6.1,8.2l-2.3,0.5c0,0-0.1-3-5.6-6.1c-5.5-3-5.5-9.3-4.4-11.3c1.2-2,7.3-3.7,9.2-4.3c2-0.6,11.4-1.7,10.2-9.4
		c0,0-2.5-6.1-14.6-2.2L607.8,29.7z"/>
	<path class="st19" d="M668.9,31.1l1.6-0.3c0,0,4.6,5.7-0.1,9.5c0,0-6.5,4.2-11.7,0.1c0,0-1.9-7.1-6.9-4c0,0-3.4,6-0.4,11.9
		c0,0,2.9,6.2,12.4,11.2l-0.2,0.8l-1.1,0.3c0,0-7.6-1.7-11.8-8.5c-4.2-6.8-3.9-16.4,0.2-19.2c0,0,2.7-2.9,5.9,0.3
		c0,0,2.6,5.1,4.9,5.8c2.3,0.7,6.7,1.4,8.4-1.6C671.9,34.4,669.6,32.2,668.9,31.1z"/>
	<g>
		<path class="st16" d="M680.9,95.1c0.6-3.9-1.7-7.7-5.9-9.8c3.8-1.8,7.2-4.2,6-9.3c-1.1-3.8-5-6.7-9.1-6.8c2.2-2.9,3.1-5.3,2.5-7.1
			c-0.4-1.4-1.5-2.4-3.4-3.1c-1.7-0.5-4.9-0.3-6.6,1c-0.5-0.8-1.2-1.2-1.9-1.7c-0.3-0.2-0.7-0.4-1.1-0.7l-0.7-0.4
			c-4.1-2.6-7.9-5.1-9.6-9.9c-0.8-2.4-1.1-8.4,0.9-10.5c0.7-0.7,1.6-0.9,2.7-0.5c1.2,0.4,1.9,1.5,2.7,2.7c0.7,1.1,1.5,2.3,2.8,3
			c1.9,1,4.2,1.1,6.8,0.4c2.7-0.8,4.5-2.1,5.2-4c0.8-2,0.2-4.7-1.6-7.6l-0.2-0.3l-0.3,0.1c-0.2,0.1-0.4,0.1-0.6,0.2
			c-0.2,0-0.5,0.1-0.8,0.2l-0.4,0.2l0.2,0.4c0.8,1.3,2,3.7,1.3,5.6c-0.4,1-1.2,1.7-2.5,2.2c-1.7,0.5-4.6,0-6.2-0.8
			c-1.2-0.6-2-1.9-2.7-3.2c-0.8-1.3-1.6-2.6-2.8-3.2c-1.9-0.7-3.6-0.5-4.9,0.6c-3,2.4-3.5,8.5-3.1,11.3c1,8.5,6.8,15.1,14.8,16.9
			l0.2-0.7c-7.8-1.7-13.3-8-14.3-16.3c-0.3-2.5,0.2-8.4,2.9-10.6c1.1-0.9,2.6-1.1,4.2-0.5c1,0.5,1.7,1.6,2.5,2.9
			c0.8,1.3,1.7,2.7,3,3.4c1.8,0.9,4.8,1.4,6.8,0.8c1.5-0.5,2.5-1.4,2.9-2.6c0.5-1.5,0.1-3.6-1.1-5.8c0.1,0,0.2,0,0.2,0
			c0.2,0,0.3-0.1,0.5-0.1c1.6,2.6,2.1,4.9,1.4,6.7c-0.6,1.6-2.2,2.8-4.7,3.5c-2.4,0.7-4.5,0.6-6.2-0.3c-1.1-0.6-1.8-1.7-2.5-2.7
			c-0.8-1.2-1.6-2.5-3.1-2.9c-1.4-0.4-2.6-0.2-3.4,0.7c-2.3,2.4-1.8,8.9-1.1,11.2c1.8,5.1,5.7,7.6,9.9,10.3l0.7,0.4
			c0.4,0.3,0.8,0.5,1.1,0.7c0.5,0.3,1,0.6,1.4,1.1c0,0,0,0-0.1,0c-2.7,1.5-2.8,7.4-3.2,10.1c-0.9,6.3-1,12-4.8,17.3
			c-4,5.5-10.9,7.9-17.5,7.8c-6-0.1-11.3-3.6-15-8.1c-3.6-4.5-4.3-9.6-4.6-15.1c-0.1-1.9,0-5.8-1.8-7.1c0,0,0,0-0.1,0
			c-0.1-3.2-1.4-4.9-3.5-6.8c-0.5-0.5-1.3-1-2.1-1.6c-1.8-1.2-3.9-2.6-3.8-4.5c0.2-3.5,4.4-4.7,8.8-6.1c6.1-1.8,13-3.8,10.5-12.4
			c-0.9-3-2.6-5-5-6c-3.5-1.4-8.7-0.6-13.8,2.3l-0.3,0.2l0.1,0.3c0.1,0.1,0.1,0.3,0.2,0.6c0.3,0.7,0.5,1.2,0.7,1.4l0,0l0.2,0.3
			c2.9-1.7,10.3-2.4,13.3,0.2c1.4,1.2,1.7,3,0.8,5.2c-1.1,3.1-5.5,4.3-9.8,5.4c-4.2,1.1-8.5,2.3-9.8,5.4c-0.8,2-0.3,4.5,1.6,7.7
			c0.7,1.1,2.3,2.2,3.9,3.4c2.5,1.7,5,3.4,4.8,5.4c-4-0.3-9.3,4.2-10.9,9.1c-1.1,3.4-0.1,6.3,2.8,8c-1,1.5-2.2,2.8-3.3,4.2
			c-2.7,3.1-5.2,6.1-4.9,9.4c0.2,2.2,1.7,4.3,4.4,6.5c-4.3,1.7-7,5.3-7.2,9.5c-0.1,4.1,2.3,7.8,6.5,9.7c-3.5,2.9-4.6,8-2.6,12.5
			c1.6,3.7,3.6,4.3,6,5.1c0.6,0.3,1.8,0.3,3,0.3c1.5,0,3.3,0,3.8,0.5c0.5,0.5,0.6,2,0.6,3.4c0,1.2,0.1,2.3,0.3,3
			c0.8,2.1,3,5.1,5.4,6.5c4.3,2.2,9,0.3,11.9-2.1c0.7,3.2,3,5.8,6.4,7.2c1.4,0.6,2.9,0.9,4.4,0.9c2.9,0.1,5.8-0.6,7.7-2.2
			c1.5-1.2,3.2-3.5,2.7-7.3c1.2,1.1,2.6,1.7,4.3,1.8c0.6,0,1.2,0,1.9-0.1c3.6-0.6,7.1-3.3,8.1-6.3c0.4-1.3,0.7-3.1-0.4-5
			c1.1,0.4,2.3,0.5,3.6,0.3c3-0.5,6.3-2.8,7.7-5.3c3.2-5.6,0.2-9.4-3.7-12.6c4.3-2,7.3-3.6,7.1-9.3c-0.2-4.3-2.6-7.8-6.8-10.2
			C678.1,101.5,680.4,98.1,680.9,95.1z M617.4,67.8c0.1,0.6,0.2,1.3,0.3,2c0.3,2,0.3,4,0.4,6c0.1,2.5,0.9,4.9,1.9,7.2
			c2.5,6,7.9,10.4,14.1,12.2c5.7,1.6,12.8,0.3,17.5-3.2c6.3-4.7,8.2-10.9,9-18.4c0.3-2.9,0.7-5.7,1.3-8.5c0.2-1.3,0.7-2.6,1.3-3.8
			c0.2-0.4,0.4-0.4,0.6-0.2c0,0.1-0.1,0.1-0.1,0.2l0.4,0.1c0.5,0.9,0.9,2.7,0.8,2.6c0.5,3.5-0.1,7-0.7,10.4c-1.5,9-4.6,18.7-13.2,23
			c-8.9,4.5-21.1,1.8-28.4-4.5c-3.5-3-5.3-7.3-6.4-11.7c-1.2-4.6-3-9.6-2.5-14.4C616,65.7,617.3,66.1,617.4,67.8z M669.3,67.6
			c-0.1,0.1-0.1,0.1-0.1,0.2c-0.6,0.6-0.9,1.4-0.8,2.3c0.3,2,2.5,3.9,3.9,4.5c0.5,0.2,1,0.4,1.7,0.6c1.9,0.6,4.2,1.3,4.5,2.6
			c0.2,0.7-0.3,1.6-1.4,2.6c-0.5,0.5-1.1,0.9-1.8,1.4c-2.3,1.6-5.2,3.5-3.3,7.1c0.7,1.2,1.8,2,2.7,2.6c1.6,1.1,2.8,1.9,1.7,4.6
			c-0.7,1.7-2.3,2.5-3.8,3.2c-1.3,0.7-2.5,1.3-3.2,2.4c0,0-1.6,2.8,2.9,5.6c1.7,1.1,3,2.9,3.3,4.2c0.4,1.7,0,3.5-1.1,5.1
			c-1.4,2.1-3.8,3.7-6.3,4.2l-0.4,0.1l0.1,0.4c0.5,1.5,1.2,2.9,1.9,4.2c0.6,1,1.2,2.1,1.6,3.2c0.7,2,0.7,3.9,0,5.3
			c-0.6,1.1-1.6,1.9-2.9,2.3c-1.3,0.3-3,0.3-4.6-0.1c-0.5-0.1-1-0.3-1.3-0.4c-0.5-0.2-0.9-0.3-1.3-0.1c-0.4,0.2-0.6,0.8-0.9,1.9
			c-0.3,1.4-0.2,2.5,0,3.4c0.2,1.7,0.3,2.8-2.1,4.3c-1.7,1-2.8,1.3-4.5,1.1c-0.5,0-1.3-0.3-2-0.7c-1.1-0.5-2.2-0.9-3.1-0.7
			c-1.2,0.4-1.6,2.5-2,4.6c-0.3,1.5-0.6,3.1-1.2,3.9c-2.2,2.4-6.2,1.4-8.3,0.4c-4-2-6.2-4.3-6.8-6.8l-0.3,0.1l-0.1-0.1
			c-0.1,0.1-0.1,0.1-0.2,0.2l-0.1,0c0,0,0,0,0,0c-0.3,0.2-0.8,0.4-1.2,0.6l-0.3,0.1c-2.8,1.4-5.1,1.6-7.8,1.3
			c-3.8-0.5-4.9-3.1-5.3-6.9c-0.4-4.4-1.7-5.6-6-5.6c-2.9,0-6.6-1.1-7.2-5.9c-0.2-1.6,0.3-3.1,0.8-4.6c0.5-1.5,1-3,0.9-4.6
			c-0.1-1.8-1.5-2.9-2.8-4c-1.5-1.3-2.9-2.5-2.8-4.6c0.1-2.9,2.6-5,4.7-6.8c0.6-0.5,1.1-0.9,1.6-1.4c2.1-2.2,0.7-3.9-0.7-5.6
			c-0.8-1-1.7-2.1-1.9-3.3c-0.9-3.6,1.3-6.4,3.5-8.8c0.3-0.3,0.7-0.6,1.1-1c1.2-1,2.5-2.2,2.7-3.3c0.2-1-0.6-2-1.3-2.9
			c-0.4-0.5-0.8-1-1-1.6c-1.8-4.1,1.2-6.6,4.1-9.1c0.7-0.6,1.5-1.3,2.2-1.9c-0.2,4.3,1.2,8.6,2.3,12.7c1.1,4.2,2.4,8,5.2,11.4
			c5.2,6.4,14.9,9.3,22.9,8.4c9.1-1.1,14.8-5.9,18.3-14.2c2.8-6.7,4.8-15.6,3.6-22.9c1.4-1.5,3.5-2.3,5.1-0.5
			C671.7,63.9,670.8,66.3,669.3,67.6z M609.3,59.1c-1.6-1.1-3.1-2.1-3.7-3.1c-1.8-3-2.3-5.3-1.6-7.1c1.1-2.7,5.1-3.8,9.3-4.9
			c4.4-1.2,9-2.4,10.2-5.9c1.3-3.2,0.2-5.1-1-6c-3.1-2.6-10.1-2.2-13.6-0.6c-0.1-0.3-0.3-0.8-0.4-1c0-0.1-0.1-0.2-0.1-0.3
			c4.8-2.6,9.6-3.4,12.8-2.1c2.2,0.9,3.8,2.8,4.6,5.5c2.3,7.9-4,9.8-10,11.5c-4.7,1.4-9.1,2.7-9.3,6.7c-0.1,2.3,2.1,3.8,4.1,5.2
			c0.8,0.5,1.5,1,2,1.5c1.9,1.7,3,3.2,3.2,5.8c-0.6-0.2-1.1-0.2-1.5,0.1C614,62.3,611.5,60.6,609.3,59.1z M671.6,102l-1.2,0.1
			l1.1,0.5c3.3,1.6,7.2,4.6,7.4,10.1c0.2,5.4-2.8,6.8-7.2,8.8l-0.5,0.2l0.4,0.4c4.4,3.6,6.8,7.1,3.9,12.1c-1.3,2.3-4.4,4.5-7.2,5
			c-1.3,0.2-3.1,0.2-4.6-1l-0.5,0.5c1.6,1.7,2,3.7,1.3,5.7c-1,2.8-4.2,5.3-7.6,5.9c-2.6,0.4-4.8-0.4-6.3-2.2l-0.6,0.4c0,0,0,0,0,0.1
			l-0.1,0c0.6,3.2-0.3,5.8-2.4,7.5c-2.8,2.3-7.4,2.7-11.4,1.2c-3.4-1.4-5.6-4-6.1-7.3l-0.1-0.7l-0.5,0.5c-2.7,2.4-7.3,4.5-11.6,2.4
			c-2.2-1.2-4.3-4.1-5.1-6.1c-0.2-0.6-0.3-1.7-0.3-2.8c-0.1-1.7-0.1-3.3-0.9-3.9c-0.7-0.7-2.5-0.7-4.3-0.7c-1.1,0-2.3,0-2.8-0.2
			c-2.4-0.8-4.1-1.3-5.6-4.8c-1.9-4.4-0.8-9.4,2.8-12l0.5-0.4l-0.6-0.2c-4.2-1.8-6.7-5.2-6.6-9.3c0.1-4.1,2.9-7.6,7.3-9.1l0.6-0.2
			l-0.5-0.4c-2.9-2.2-4.4-4.3-4.6-6.4c-0.3-3,2-5.7,4.7-8.9c1.2-1.4,2.5-2.9,3.6-4.5l0.2-0.3l-0.4-0.2c-3.8-2-3.4-5.5-2.8-7.3
			c1.4-4.5,6.2-8.6,9.8-8.6c-0.1,0.2-0.2,0.5-0.2,0.7c0,0,0,0,0,0c-0.7,0.8-1.6,1.5-2.5,2.3c-2.9,2.5-6.2,5.3-4.2,9.6
			c0.2,0.6,0.7,1.1,1.1,1.7c0.7,0.8,1.3,1.7,1.2,2.5c-0.1,0.9-1.5,2.1-2.6,3c-0.4,0.4-0.9,0.7-1.2,1.1c-2.2,2.5-4.6,5.4-3.6,9.2
			c0.3,1.3,1.2,2.4,2,3.5c1.4,1.7,2.5,3.1,0.7,5c-0.5,0.4-1,0.9-1.5,1.4c-2.2,1.9-4.7,4.1-4.9,7.2c-0.1,2.3,1.5,3.7,3,5
			c1.3,1.1,2.5,2.1,2.6,3.7c0.1,1.5-0.3,2.9-0.9,4.4c-0.5,1.5-1.1,3.1-0.8,4.8c0.5,4.1,3.2,6.3,7.7,6.3c3.7,0,5.1,0.8,5.5,5.2
			c0.4,3.5,1.4,6.8,5.8,7.3c0.4,0,0.9,0.1,1.3,0.1c2.3,0.1,4.4-0.2,6.8-1.4l0.3-0.1c0.4-0.2,0.8-0.3,1.1-0.5c0.8,2.6,3.1,4.8,7,6.8
			c1.3,0.6,2.8,1,4.3,1.1c1.9,0.1,3.6-0.4,4.8-1.7c0.7-0.9,1-2.5,1.3-4.2c0.3-1.8,0.7-3.8,1.5-4.1c0.6-0.2,1.6,0.2,2.5,0.6
			c0.8,0.3,1.6,0.7,2.2,0.7c0,0,0,0,0,0c2.1,0.3,3.4-0.3,5-1.2c2.8-1.7,2.6-3.2,2.4-5c-0.1-0.9-0.2-1.9,0-3.2
			c0.2-0.8,0.4-1.3,0.5-1.4c0.1,0,0.4,0.1,0.7,0.2c0.4,0.1,0.8,0.3,1.4,0.4c1.7,0.4,3.6,0.5,5,0.1c1.6-0.5,2.7-1.4,3.4-2.7
			c0.8-1.6,0.8-3.7,0.1-5.9c-0.4-1.2-1-2.2-1.6-3.3c-0.6-1.2-1.3-2.3-1.8-3.6c2.6-0.6,5-2.3,6.4-4.4c1.2-1.8,1.6-3.7,1.2-5.7
			c-0.4-1.5-1.8-3.1-3.6-4.4c-4.2-2.9-2.9-5.1-2.9-5.1c0.6-1,1.8-1.6,3-2.3c1.6-0.8,3.2-1.6,4-3.5c1.3-3-0.2-4.1-1.9-5.1
			c-1-0.6-2-1.3-2.6-2.4c-1.7-3.1,0.8-4.8,3.1-6.4c0.7-0.5,1.3-0.9,1.9-1.4c1.3-1.1,1.8-2.1,1.6-3c-0.3-1.6-2.8-2.3-4.8-3
			c-0.6-0.2-1.2-0.4-1.6-0.6c-1.3-0.5-3.4-2.3-3.6-4.1c-0.1-0.8,0.2-1.4,0.8-2c0,0,0,0,0,0c1.8-1.6,2.5-4.2,1-6.3
			c-1.5-2-4-1.2-5.6,0.2c0,0,0-0.1,0-0.1c0-0.2-0.2-0.7-0.4-1.1c1.2-1.3,4.4-1.6,6.2-1.2c1.6,0.6,2.6,1.5,2.9,2.6
			c0.5,1.7-0.5,4-2.9,7.1l-0.5,0.6l0.8-0.1c3.9-0.3,8,2.6,9.1,6.3c1.1,4.9-2.4,7-6.3,8.8l-0.7,0.3l0.7,0.3c4.3,1.9,6.7,5.6,6.2,9.4
			C679.6,98.7,676.3,101.4,671.6,102z"/>
		<path class="st16" d="M645.1,134.2c0.6,4.3-7.2,6-7.2,1c0-0.1-0.1-0.2-0.2-0.3c0.3,0,0.6-0.1,0.9-0.3c1.4-0.9,2.3-3.1,2.9-4.6
			c1-2.3,0.3-2.7-2-3.1c-1.4-0.1-3.2-0.6-4.6-0.2l0.2,0.1c-3-0.3-0.9,3.9-0.3,5.1c0.5,0.9,1.3,2.4,2.3,2.9c0,0,0,0.1,0,0.1
			c-0.2,2.1-1.5,3.8-3.7,3.7c-2.4-0.1-3.3-2.5-3-4.6c0-0.4-0.5-0.4-0.6,0c-0.3,2.4,0.8,4.7,3.4,5.2c2.2,0.4,3.7-1.1,4.3-3
			c1,4.5,8.9,2.7,8.2-2.2C645.7,133.7,645.1,133.8,645.1,134.2z"/>
		<path class="st16" d="M636,124.7c1.5-0.2,1.8-5.9-0.6-5l-0.2,0C634.6,120.6,634,124.9,636,124.7z"/>
		<path class="st16" d="M640.4,124.4c1.5-0.2,1.8-5.9-0.6-5l-0.2,0C639,120.3,638.5,124.6,640.4,124.4z"/>
		<path class="st16" d="M632.4,135.4c0.4,0,0.4-0.6,0-0.6C632.1,134.8,632,135.4,632.4,135.4z"/>
		<path class="st16" d="M633.4,133.6c0.4,0,0.4-0.6,0-0.6C633.1,133,633.1,133.6,633.4,133.6z"/>
		<path class="st16" d="M634.4,135c-0.4,0-0.4,0.6,0,0.6C634.7,135.6,634.7,135,634.4,135z"/>
		<path class="st16" d="M640.8,135.3c0,0.1,0,0.1,0,0.2c0,0.4,0.6,0.4,0.6,0c0-0.1,0-0.1,0-0.2C641.4,134.9,640.8,134.9,640.8,135.3
			z"/>
		<path class="st16" d="M641.8,133.1C641.8,133.1,641.8,133,641.8,133.1c0-0.4-0.6-0.5-0.6-0.1c0,0,0,0.1,0,0.1
			C641.2,133.4,641.8,133.5,641.8,133.1z"/>
		<path class="st16" d="M643.3,134.5c0.4,0,0.4-0.6,0-0.6C643,133.9,642.9,134.5,643.3,134.5z"/>
		<path class="st16" d="M620.7,120.6c2.8,1.9,5.9,3.3,8.7,5.1c0.3,0.2,0.6-0.3,0.3-0.5c-2.8-1.8-5.9-3.2-8.8-5.1
			C620.7,119.9,620.3,120.4,620.7,120.6z"/>
		<path class="st16" d="M629.1,126.9c-2.9,0.9-6,1.3-9.1,1c-0.4,0-0.4,0.5,0,0.6c3.1,0.3,6.3-0.1,9.2-1
			C629.6,127.3,629.5,126.8,629.1,126.9z"/>
		<path class="st16" d="M629.6,129.2c-0.8,1.1-1.9,1.9-3,2.7c-1.2,0.9-2.4,2-3.5,3c-0.3,0.2,0.1,0.7,0.4,0.4c1.1-1,2.3-2,3.5-3
			c1.1-0.9,2.3-1.6,3.1-2.8C630.3,129.2,629.8,128.9,629.6,129.2z"/>
		<path class="st16" d="M659.6,120.4c-2.4,1.2-5,2-7.4,3c-1.6,0.7-3.3,2.4-5.1,2.5c-0.4,0-0.4,0.6,0,0.6c1.5-0.1,2.9-1.2,4.2-1.9
			c2.7-1.5,5.9-2.3,8.7-3.6C660.2,120.7,660,120.2,659.6,120.4z"/>
		<path class="st16" d="M659.3,130.5c-1.9-0.2-3.7-0.8-5.5-1.4c-1.9-0.5-3.8-0.8-5.7-1.4c-0.4-0.1-0.5,0.4-0.2,0.5
			c1.9,0.6,3.8,0.9,5.7,1.4c1.9,0.5,3.7,1.2,5.7,1.4C659.6,131.1,659.6,130.5,659.3,130.5z"/>
		<path class="st16" d="M654.9,135.8c-1.2-0.8-2.5-1.6-3.7-2.4c-1.2-0.8-2.1-2-3.3-2.9c-0.3-0.2-0.6,0.3-0.3,0.5
			c1.1,0.8,2,1.8,3,2.6c1.2,1,2.7,1.8,4,2.7C654.9,136.5,655.2,136,654.9,135.8z"/>
		<path class="st16" d="M617.9,102.2c-0.8,0.6-1.2,1.9-1.4,3c-1.1-1-1.8-2-3.5-1.8c-1.1,0.1-2.1,1.2-1.8,2.4c0.4,1.6,1.7,2.8,3,3.7
			c1.1,0.9,2.7,2,4.2,1.5c1.2-0.5,1.6-2.5,2-3.5c0.5-1.5,0.9-3.3,0-4.7C619.8,101.8,618.7,101.6,617.9,102.2z M619.2,108.9
			c-1.2,3.2-4.5,0.3-6-1.1c-1.1-1.1-2.5-3.7,0.2-3.9c1.4-0.1,2.1,1.2,3,2c0,0,0.1,0.1,0.1,0.1c0.1,0.1,0.3,0,0.4-0.1
			c0,0,0-0.1,0-0.1c0.3-1.3,1.4-5,3.1-2.5C621,104.7,619.8,107.5,619.2,108.9z"/>
		<path class="st16" d="M662.5,104.6c-1.2,0.2-2.1,1.1-2.9,1.9c-0.3-1.2-0.5-2.6-1.8-3.2c-1.2-0.6-2.3-0.3-3,0.8
			c-0.7,1.2,0,3.3,0.5,4.5c0.4,1.1,1.3,3.5,2.7,3.7c1.6,0.3,2.8-1.1,3.9-2.1c1.1-1,2.3-2.3,2.3-3.9
			C664.2,105.5,663.4,104.5,662.5,104.6z M660.2,111c-2.8,2.3-4.3-2-4.9-4.1c-0.4-1.4-0.4-3.8,1.8-3.2c1.6,0.4,1.6,2.2,2,3.4
			c0,0.1,0,0.1,0.1,0.1c0.1,0.1,0.2,0.2,0.4,0c0,0,0.1-0.1,0.1-0.1c0.8-0.8,3.8-3.8,3.9-0.5C663.7,108.4,661.4,110,660.2,111z"/>
	</g>
	<g>
		<path class="st15" d="M635.6,122.3c0.1,0,0.1,0,0.2,0c0.8,0,0.8-1.2,0.1-1.2c-0.1,0-0.1,0-0.2,0
			C634.9,121,634.8,122.2,635.6,122.3L635.6,122.3z"/>
	</g>
	<g>
		<path class="st15" d="M640.3,122c0.8,0,0.8-1.2,0.1-1.2C639.6,120.8,639.5,122,640.3,122L640.3,122z"/>
	</g>
	<g>
		<path class="st15" d="M635.7,127.6c-1.4,0.9-1.1,2.5-0.1,3.7c0.5,0.6,1.4-0.2,0.9-0.8c-0.4-0.5-0.9-1.4-0.2-1.8
			C636.9,128.2,636.3,127.1,635.7,127.6L635.7,127.6z"/>
	</g>
</g>
<g>
	<g>
		<path class="st6" d="M863.8,41.1c0,0-13.3,0.2-12.7-6.3c0,0,8-5.9,17-2.5c0,0-4.8-13.2,5.3-13.7c0,0,4.5-1.1,7.7,7.8
			c0,0,0.8-14.5,10.1-13.7c0,0,3.7,1.9,5.8,5.9c0,0,2.7-12.2,10.1-9.9c0,0,3.2,4.8,1.9,8c-1.3,3.2,6.9-7.6,13-3.8
			c0,0,4.8,1.5-4.8,8.2c0,0,11.7,2.5,5.6,8c-6.1,5.5-12.7,3.2-16.2,1.7c0,0,5,6.7-0.8,8.6c-5.8,1.9-9.8-5.3-9.8-5.3s5,10.1-3.2,11.3
			c-8.2,1.3-7.7-5-7.7-5s-1.1,9.9-5.6,10.1c-4.5,0.2-7.2-8-7.2-8s-3.5,9.2-9,8.2C857.7,49.8,862.5,43,863.8,41.1z"/>
	</g>
	<g>
		<g>
			<path class="st40" d="M862.5,43.1c-1.7,2.7-3.5,6.9,0.8,7.7c4.2,0.8,7.2-4.4,8.4-6.9C868.6,44.4,865.5,44.2,862.5,43.1z"/>
		</g>
		<g>
			<path class="st40" d="M918.5,21.5c-3,3.4-7.7,5.8-13.5,6.6c-2.1,3-5.1,5.4-8.6,6.8c1.2,1.8,4.7,6,9.3,4.5
				c5.8-1.9,0.8-8.6,0.8-8.6c3.5,1.5,10.1,3.8,16.2-1.7C927.6,24.9,921.4,22.4,918.5,21.5z"/>
		</g>
		<g>
			<path class="st40" d="M886.3,36.5c-3.7,3.5-8.5,6.3-13.5,7.3c0.9,2.2,3.3,7,6.7,6.9c4.5-0.2,5.6-10.1,5.6-10.1s-0.5,6.3,7.7,5
				c6.8-1,4.5-8.1,3.5-10.5C893.3,36.3,889.8,36.8,886.3,36.5z"/>
		</g>
	</g>
	<g>
		<path class="st4" d="M877.8,51c0,0,2.8,7.4-1.6,11.8c-4.4,4.3-12.7,14.3-12.4,16.8c0.4,2.5,2.8,11.5,24.1,5.2
			c0,0,22.3-6.4,36.3-19.9c0,0,7.3-9.8,2.8-18.1l-11.9-13.7l-8-2.2c0,0,0.9,2.9,1.2,3.9c0.4,1,0,4.1-2.7,4.7
			c-2.7,0.6-6.4,0.2-9.2-3.4c-2.8-3.6,4.6,7.4-3.2,9.7c0,0-5.8,1.7-8.3-5.2C885,40.5,885.4,50.5,877.8,51z"/>
	</g>
	<g>
		<path class="st41" d="M927.5,46.5l-6.9-8c3.6,11.2,2.5,22.1-11.1,30.8c-12,7.8-26,11.7-40.1,16.2c3.5,1.4,9.2,1.7,18.9-1.1
			c0,0,22.3-6.4,36.3-19.9C924.6,64.6,931.9,54.8,927.5,46.5z"/>
	</g>
	<g>
		<path class="st42" d="M893.3,60.7c0,0,1.9-3.4,5-1.9c3.2,1.5,0.5,7-5.4,8.3c-6,1.3-0.5,0-0.5,0s-8.4-5.3-3.1-8.4
			C889.3,58.7,891.6,58.1,893.3,60.7z"/>
	</g>
	<g>
		<path class="st43" d="M903.2,53.2c0,0-2.1-3.8,1.6-4c3.7-0.2,4.2,5.7,3.5,7c0,0-2.9,3.6-9.3-0.6C899,55.6,896.9,51.6,903.2,53.2z"
			/>
	</g>
	<g>
		<path class="st6" d="M945.9,40.2c0,0-12.5-3.5-9.1-9.4c0,0,10.1-3.3,17,2.4c0,0,1.4-13.7,11-11.3c0,0,4.7,0.3,3.8,9.4
			c0,0,7.2-13.4,15.5-10c0,0,2.6,2.8,2.9,7.1c0,0,7.9-10.7,13.8-6.4c0,0,0.8,5.4-1.8,8c-2.6,2.6,9.8-5.2,13.9,0.1
			c0,0,3.8,2.7-8.1,6.3c0,0,9.8,5.6,1.7,9c-8.1,3.4-13.3-0.6-15.9-2.9c0,0,1.7,7.7-4.6,7.8c-6.3,0.1-6.9-7.6-6.9-7.6s0.2,10.8-8,9.7
			c-8.3-1.1-5-6.9-5-6.9s-5.4,9-9.7,7.9c-4.3-1.1-3.2-9.5-3.2-9.5s-7.3,7.7-12.1,5.2C936.4,46.5,943.9,41.6,945.9,40.2z"/>
	</g>
	<g>
		<path class="st4" d="M954.7,53.3c0,0-0.6,7.7-6.7,10.6c-6.1,2.8-18.3,9.8-19.1,12.3c-0.8,2.5-2.4,11.5,20.2,11.5
			c0,0,23.7,0.2,42.8-8.5c0,0,11.1-7.2,10.7-16.1l-5-16.2l-6.5-4.3c0,0-0.5,3-0.6,4c-0.1,1-1.8,3.8-4.6,3.7
			c-2.8-0.1-6.1-1.6-7.1-5.8c-1-4.2,1,8.2-7.3,8.2c0,0-6.2,0-5.5-7.2C966.1,45.5,962,54.9,954.7,53.3z"/>
	</g>
	<g>
		<path class="st41" d="M1003.1,62.9l-2.9-9.4c-1.6,11.5-7.5,21.4-24,25.8c-14.7,3.9-29.6,3.7-44.7,4.1c2.6,2.3,7.9,4.2,18.2,4.2
			c0,0,23.7,0.2,42.8-8.5C992.5,79,1003.6,71.9,1003.1,62.9z"/>
	</g>
	<g>
		<path class="st42" d="M964.9,66.7c0,0,3.2-2.6,5.6-0.4c2.3,2.3-2.6,6.7-8.8,6.3c-6.2-0.5-0.5-0.1-0.5-0.1s-5.5-7.2,0.9-8.7
			C962,63.7,964.4,63.7,964.9,66.7z"/>
	</g>
	<g>
		<path class="st43" d="M977.5,62.4c0,0-0.3-4.1,3.3-3.3c3.6,0.8,1.5,6.5,0.1,7.6c0,0-4.3,2.5-8.4-3.2
			C972.5,63.5,972.3,59.1,977.5,62.4z"/>
	</g>
	<g>
		<g>
			<path class="st15" d="M876.7,78.3c1.7,0,1.7-2.1,0-2.1C875,76.2,875,78.3,876.7,78.3L876.7,78.3z"/>
		</g>
	</g>
	<g>
		<g>
			<path class="st15" d="M892.7,72.7c1.7,0,1.7-2.1,0-2.1C891,70.6,891,72.7,892.7,72.7L892.7,72.7z"/>
		</g>
	</g>
	<g>
		<g>
			<path class="st15" d="M909.7,63.1c1.7,0,1.7-2.1,0-2.1S907.9,63.1,909.7,63.1L909.7,63.1z"/>
		</g>
	</g>
	<g>
		<g>
			<path class="st15" d="M913.9,52.5c1.7,0,1.7-2.1,0-2.1C912.2,50.4,912.2,52.5,913.9,52.5L913.9,52.5z"/>
		</g>
	</g>
	<g>
		<g>
			<path class="st15" d="M912.1,42.1c1.7,0,1.7-2.1,0-2.1C910.4,40,910.4,42.1,912.1,42.1L912.1,42.1z"/>
		</g>
	</g>
	<g>
		<g>
			<path class="st15" d="M882.7,61.7c1.7,0,1.7-2.1,0-2.1C881,59.6,881,61.7,882.7,61.7L882.7,61.7z"/>
		</g>
	</g>
	<g>
		<g>
			<path class="st15" d="M942.2,76.6c1.7,0,1.7-2.1,0-2.1C940.5,74.5,940.5,76.6,942.2,76.6L942.2,76.6z"/>
		</g>
	</g>
	<g>
		<g>
			<path class="st15" d="M948,66.3c0.1,0.3,0.3,0.5,0.4,0.8c0.3,1.3,2.9,0.8,2.6-0.6c-0.1-0.3-0.3-0.5-0.4-0.8
				C950.3,64.4,947.7,65,948,66.3L948,66.3z"/>
		</g>
	</g>
	<g>
		<g>
			<path class="st15" d="M968.6,75.2c0.1,0.1,0.2,0.2,0.4,0.3c1.2,1,3.1-0.5,1.9-1.5c-0.1-0.1-0.2-0.2-0.4-0.3
				C969.2,72.7,967.4,74.2,968.6,75.2L968.6,75.2z"/>
		</g>
	</g>
	<g>
		<g>
			<path class="st15" d="M990.4,66.2c1.7,0,1.7-2.1,0-2.1C988.7,64.1,988.7,66.2,990.4,66.2L990.4,66.2z"/>
		</g>
	</g>
	<g>
		<g>
			<path class="st15" d="M991.8,55.9c1.7,0,1.7-2.1,0-2.1C990.1,53.8,990.1,55.9,991.8,55.9L991.8,55.9z"/>
		</g>
	</g>
	<g>
		<g>
			<path class="st15" d="M981.9,57c1.7,0,1.7-2.1,0-2.1C980.2,54.9,980.2,57,981.9,57L981.9,57z"/>
		</g>
	</g>
	<g>
		<g>
			<path class="st15" d="M961,57c1.7,0,1.7-2.1,0-2.1C959.3,54.9,959.3,57,961,57L961,57z"/>
		</g>
	</g>
	<g>
		<g>
			<path class="st40" d="M943.6,40.8c-2.9,2-6.5,5.3-3,7.3c3.5,2,8.8-1.8,11.1-3.8C948.6,43.8,945.8,42.7,943.6,40.8z"/>
		</g>
		<g>
			<path class="st40" d="M1005.8,37.8c-4.4,2.2-9.9,3-15.6,2c-3.4,2.1-7.3,3.4-11.3,3.7c0.3,2,1.4,7,6.4,7c6.3,0,4.9-7.7,4.9-7.7
				c2.5,2.4,7.5,6.6,15.8,3.4C1012.5,43.6,1008,39.5,1005.8,37.8z"/>
		</g>
		<g>
			<path class="st40" d="M968.8,41.8c-5.1,2.1-10.9,3.2-16,2.6c-0.2,2.3-0.4,7.5,2.9,8.4c4.3,1.2,10-7.6,10-7.6s-3.5,5.7,4.7,7
				c6.8,1.1,8.1-6.1,8.4-8.7C975.3,43.8,971.9,43.2,968.8,41.8z"/>
		</g>
	</g>
	<g>
		<g>
			<path class="st16" d="M864.1,51.5c-0.5,0-0.9-0.1-1.4-0.2c-1.3-0.3-2.1-1-2.4-2.1c-0.7-2.4,1.1-5.9,2.8-7.9
				c-3.3,0.2-8.4-0.6-10.3-2.7c-2.7-2.3-2.3-4-1.5-5c2.4-2.9,11.6-3.2,16.1-2.5c-1.1-3.4-2.3-8.7,2.7-11.8c2-1.2,3.8-1.6,5.3-1.3
				c2.6,0.6,3.9,3.1,5.2,5.6c0.5-3.3,2.1-7,5.2-9.2c2.1-1.7,4-2.3,5.8-2c2.4,0.4,4,2.5,5.2,4.7c0.7-3.4,2.8-7.3,6.8-8.2
				c1.8-0.5,3.3-0.4,4.4,0.2c2,1.2,1.9,3.9,1.8,6.4c0,0,0,0,0,0c0,0,0,0,0.1,0c2.8-1.8,7.2-4.6,11.1-3.3c1.8,0.6,2.9,1.5,3.1,2.5
				c0.4,2.1-2.6,4.2-5.2,6c3.4,0.6,5.6,2.5,6.3,4.5c0.9,2.5-0.4,4.9-3.3,6.3c-4.2,2.3-9.4,1.7-13.5,0.4c1.1,1.9,1.8,4.2,1,6
				c-0.5,1.2-1.7,2.1-3.4,2.6c-4.1,1.1-6.4-0.9-8.3-3c0.6,3,1.2,6.5-2.9,8.4c-1.6,0.8-3.1,1-4.5,0.6c-2-0.5-3.4-2.2-4.4-3.9
				c-0.6,3.3-1.8,8.2-6.9,8.5c-4.6,0.3-6.1-3.7-6.7-7C870.5,47.2,867.9,51.5,864.1,51.5z M864.8,40.9l0.4,0.3
				c-1.8,1.4-4.1,5.6-3.4,7.8c0.2,0.7,0.6,1,1.4,1.2c3.7,1,6.5-4.5,7.9-7.5c0.3-0.5,0.5-1,0.7-1.4L873,39l0.3,2.4
				c0.3,2.8,1,8.6,5.3,8.4c4.1-0.2,4.9-4.9,5.5-8c0.1-0.5,0.2-1,0.3-1.5l0.5-2l1.4,2.4c1,1.8,2.3,4.1,4.3,4.6c0.9,0.2,2,0.1,3.2-0.5
				c3.3-1.5,2.7-4.5,2.1-7.5c-0.2-0.8-0.3-1.5-0.4-2.2l-0.2-2.1l1.6,1.7c0.4,0.4,0.8,0.9,1.3,1.4c1.9,2.2,3.7,4.2,7.1,3.3
				c1.2-0.4,2-1,2.4-1.8c0.7-1.5,0-3.8-1.8-6.5l-1.2-1.7l2.2,0.8c4,1.5,9.6,2.7,13.9,0.3c2.4-1.1,3.3-3,2.7-4.9
				c-0.7-1.9-3-3.7-6.7-3.7h-2.1l1.6-1.1c0.3-0.2,0.7-0.5,1.1-0.8c2.1-1.4,5.3-3.6,5-5.1c-0.1-0.6-0.8-1.1-2.1-1.5
				c-3-1-6.7,1.4-9.4,3.1c-0.5,0.3-1,0.6-1.4,0.9l-1.3,0.8v-1.3c0-0.4,0-0.9,0-1.4c0.1-2,0.2-4.6-1.2-5.3c-0.6-0.4-1.6-0.4-3,0
				c-4.1,0.9-6,6.2-6,9.7v3.5l-1.5-3.3c-1.1-2.4-2.8-5.9-5.3-6.4c-1.2-0.2-2.7,0.4-4.4,1.7c-3.6,2.6-4.9,7.4-4.9,10.9V29l-1.5-2.4
				c-0.5-0.7-0.9-1.6-1.3-2.4c-1.1-2.2-2.3-4.5-4.2-4.9c-1-0.2-2.4,0.1-3.9,1.1c-4.3,2.7-3.2,7.4-1.8,11.5l0.4,1.2l-1.4-0.4
				c-3.5-1-13.6-0.7-15.6,1.8c-0.7,0.9-0.2,2,1.4,3.5c1.9,2,8.1,2.7,10.4,2L864.8,40.9z"/>
		</g>
		<g>
			<g>
				<path class="st16" d="M876.9,50.9c3.7,8.4-3.1,14.2-8.7,20.6c-2.2,2.5-5.7,6.8-4,10.1c5.1,9.6,21.7,4.7,30.2,1.3
					c13-5.2,26.3-10.9,32.8-21.6c7-11.6-3.7-20.1-11.7-28.9c-0.5-0.5-1.6,0-1.1,0.5c8.8,9.7,18.2,17.2,10.5,29.9
					c-5.3,8.8-18.2,14-28.7,18.3c-7.9,3.2-15.6,6-24.7,4.5c-14.5-2.4-0.8-15.2,2.6-18.9c4.6-5.1,6.7-10,4-16
					C877.8,50,876.6,50.2,876.9,50.9L876.9,50.9z"/>
			</g>
		</g>
		<g>
			<g>
				<path class="st16" d="M894.2,61.1c-1.2-1.5-1.7-2.9-4.2-3.2c-1.8-0.2-2.7,1.4-2.9,2.5c-0.4,2.4,2.5,6.6,5.9,6.9
					c4.2,0.3,7.6-4.2,7.3-7.1c-0.1-1.4-1.5-2.2-3.2-2.3c-2.3-0.1-3.2,2-4.1,3.2c-0.4,0.6,0.7,1.1,1.1,0.5c0.5-0.6,0.8-1.2,1.3-1.8
					c1.1-1.1,2.2-1.1,3.4-0.1c0.6,0.6,0.3,1.7,0,2.4c-0.6,1.8-2.9,4.3-5.4,4.4c-2.3,0.1-3.9-2.4-4.6-3.8c-0.3-0.7-0.5-1.4-0.5-2.1
					c-0.1-2.9,3.3-1.1,3.9-0.1c0.3,0.4,0.5,0.9,0.8,1.3C893.5,62.1,894.6,61.6,894.2,61.1L894.2,61.1z"/>
			</g>
		</g>
		<g>
			<g>
				<path class="st16" d="M903.8,53c-1.9-0.4-3.6-1-5.2,0.2c-1.2,0.9-0.5,2.3,0.5,3.1c2,1.6,6.2,2.6,8.7,1.2
					c2.7-1.4,1.6-5.7-0.2-7.4c-1-1-2.9-1.7-4.3-0.7c-1.8,1.2-0.9,2.7-0.4,4.2c0.2,0.6,1.4,0.4,1.2-0.3c-0.3-0.9-1-1.9-0.4-2.8
					c0.7-1.2,2.1-0.4,2.8,0.1c0.5,0.4,0.9,1,1.1,1.6c0.6,1.3,1,3.7-0.7,4.6c-1.5,0.8-3.9,0.1-5.4-0.4c-0.9-0.3-1.9-0.8-2.3-1.6
					c-0.5-1,1.3-1.4,2.2-1.3c0.7,0.1,1.3,0.4,2,0.5C904.2,54.1,904.6,53.2,903.8,53L903.8,53z"/>
			</g>
		</g>
		<g>
			<g>
				<path class="st16" d="M894.1,61c0-2.4-0.4-4.1-1.4-6.3c-1.2-2.6-1.9-5.6-0.6-8.3c0.3-0.6-0.9-0.9-1.2-0.3
					c-0.8,1.6-1,3.5-0.6,5.2c0.3,1.6,0.9,3,1.6,4.5c0.8,1.7,0.9,3.3,0.9,5.1C892.9,61.6,894.1,61.6,894.1,61L894.1,61z"/>
			</g>
		</g>
		<g>
			<g>
				<path class="st16" d="M903,52.5c-4-1.3-6.4-4.4-8.3-7.3c-0.4-0.6-1.5-0.1-1.1,0.5c2.1,3.2,4.7,6.3,9,7.8
					C903.4,53.7,903.8,52.7,903,52.5L903,52.5z"/>
			</g>
		</g>
	</g>
	<g>
		<g>
			<path class="st16" d="M957.1,53.8c-0.5,0-1.1-0.1-1.6-0.2c-4.4-1.1-4-5.2-3.1-8.4c-3.2,2.7-8.2,6.6-12,4.2
				c-1-0.6-1.5-1.6-1.3-2.7c0.4-2.4,3.6-5.2,6.1-6.6c-3.2-0.7-7.5-2.9-8.5-5.4c-1.5-2.9-0.4-4.4,0.8-5.1c3.5-2,12.3,0.2,16.2,2.1
				c0.5-3.5,1.7-8.8,7.8-10.3c2.4-0.6,4.3-0.5,5.6,0.3c2.2,1.3,2.3,4,2.4,6.7c2-3,5-5.9,8.9-7.2c2.7-1,4.8-1.1,6.3-0.3
				c2,1,2.6,3.4,2.8,5.8c2.2-3,5.9-6,10-5.8c1.9,0.1,3.3,0.5,4,1.4c1.3,1.6,0,4.2-1.1,6.5c0,0,0,0,0,0c0,0,0,0,0.1,0
				c3.5-0.9,8.7-2.3,11.8,0c1.5,1.1,2.1,2.2,1.8,3.2c-0.5,2.1-4.4,3.2-7.6,4.2c2.9,1.5,4.1,3.9,3.9,6c-0.3,2.5-2.5,4.4-5.9,5
				c-5,1-9.5-1.1-12.8-3.4c0.1,2.1-0.2,4.4-1.7,5.9c-1,1-2.5,1.5-4.3,1.5c-4.3-0.1-5.6-2.6-6.4-5.1c-0.7,3-1.8,6.4-6.4,7
				c-1.8,0.3-3.4,0.1-4.5-0.6c-1.7-1-2.2-3-2.4-4.9C963.8,50.2,961.1,53.8,957.1,53.8z M955.5,40.8l-0.8,2.3c-1,2.7-2.9,8.3,1.3,9.3
				c3.9,1,6.8-3.2,8.7-6c0.3-0.5,0.6-0.9,0.9-1.3l1.3-1.7l0.2,2.6c0.2,2,0.4,4.5,2,5.5c0.8,0.5,1.8,0.6,3.2,0.4
				c3.8-0.5,4.5-3.5,5.3-6.4c0.2-0.8,0.4-1.5,0.6-2.2l0.7-2l0.8,2c0.2,0.5,0.4,1.1,0.6,1.7c0.8,2.6,1.6,5,5.2,5
				c1.3,0,2.4-0.4,3.1-1.1c1.3-1.2,1.7-3.5,1.2-6.6l-0.3-1.9l1.7,1.4c3.1,2.5,7.8,5.2,12.9,4.2c2.7-0.4,4.4-1.8,4.6-3.8
				c0.2-1.9-1.1-4.3-4.6-5.3l-2-0.6l2-0.6c0.4-0.1,0.9-0.3,1.4-0.4c2.6-0.7,6.6-1.9,6.9-3.3c0.2-0.6-0.3-1.3-1.3-2
				c-2.4-1.8-6.9-0.6-10.2,0.3c-0.6,0.2-1.2,0.3-1.7,0.4l-1.5,0.4l0.6-1.2c0.2-0.4,0.4-0.8,0.6-1.3c1-1.9,2.2-4.2,1.3-5.3
				c-0.4-0.5-1.3-0.8-2.8-0.8c-4.3-0.3-8.4,4.2-9.9,7.4l-1.5,3.3v-3.5c0-2.5,0-6.3-2.1-7.4c-1.1-0.5-2.7-0.4-4.9,0.4
				c-4.6,1.4-7.9,5.5-9.5,8.9l-1.2,2.5l-0.4-2.7c-0.1-0.8-0.1-1.7-0.2-2.6c-0.1-2.4-0.1-4.9-1.7-5.8c-0.9-0.5-2.3-0.5-4.2-0.1
				c-5.2,1.3-6.2,6-6.8,10.3l-0.1,1.2l-1.2-0.8c-2.8-1.9-12.4-4.4-15.4-2.7c-1.1,0.6-1.1,1.8-0.2,3.6c0.9,2.4,6.3,4.8,8.9,4.8
				c0,0,0,0,0,0v1.1l0.2,0.4c-2.3,0.8-6.3,4.1-6.7,6.3c-0.1,0.7,0.1,1.2,0.8,1.5c3.1,2,8.1-2.5,10.8-4.8c0.5-0.4,0.9-0.8,1.3-1.1
				L955.5,40.8z"/>
		</g>
		<g>
			<g>
				<path class="st16" d="M953.8,52.9c-0.3,13.5-25.5,14-25.5,25.9c0,10.8,22.4,9.4,30.4,8.7c13.6-1.2,27.6-3.2,37.8-10.9
					c11.7-8.9,5.4-19.9,1.8-30.4c-0.2-0.6-1.4-0.4-1.2,0.3c4,11.5,9.2,21.2-3.5,30.9c-9.4,7.2-25.3,8.3-37.6,9.3
					c-2.3,0.3-4.7,0.4-7,0.5c-1.1,0-2.2,0-3.4-0.1c-9.3,0.1-13.4-4.6-12.3-13.9c3.7-3.3,9.7-5.5,14.2-8.2c5.1-3.1,7.6-7,7.7-12.1
					C955.1,52.3,953.9,52.3,953.8,52.9L953.8,52.9z"/>
			</g>
		</g>
		<g>
			<g>
				<path class="st16" d="M965.6,67.2c-0.3-1.4-0.2-3.6-2.6-4.1c-1.9-0.4-3.3,0.5-3.9,1.9c-1.1,2.4-0.4,6.3,2.5,7.7
					c3.2,1.7,8.6-1.5,9.8-3.8c0.8-1.5,0.5-3-1.5-3.8c-2.2-0.8-3.8,0.8-5.3,1.7c-0.6,0.4,0,1.3,0.6,0.9c1-0.6,1.7-1.3,2.9-1.7
					c1.8-0.6,2.6,1.2,2.2,2.2c-0.2,0.7-0.9,1.2-1.4,1.7c-1.5,1.3-5,3-7.2,1.6c-1.5-1-1.8-3.1-1.8-4.5c0-0.9,0.2-1.9,1-2.6
					c2-2,3.2,1.4,3.2,2c0,0.4,0.1,0.7,0.2,1.1C964.5,68.1,965.7,67.8,965.6,67.2L965.6,67.2z"/>
			</g>
		</g>
		<g>
			<g>
				<path class="st16" d="M978,62.4c-1.4-0.7-2.7-2-4.6-1.3c-1.5,0.5-1.8,1.7-1.3,2.9c1,2.3,5,4.5,8,3.8c3.4-0.8,3.8-5.5,2.6-7.5
					c-0.6-1.1-2.2-1.7-3.6-1.2c-2.1,0.7-1.8,2.3-2,3.8c-0.1,0.6,1.2,0.6,1.3,0c0.2-1-0.2-2.2,1-2.8c1.8-1,2.6,1.3,2.7,2.2
					c0.2,1.5-0.5,4.2-2.6,4.7c-1.9,0.4-4.2-1.2-5.3-2.2c-0.7-0.7-1.6-1.9-0.4-2.6c1.3-0.7,2.7,0.7,3.7,1.2
					C978.1,63.6,978.7,62.7,978,62.4L978,62.4z"/>
			</g>
		</g>
		<g>
			<g>
				<path class="st16" d="M965.6,67.1c1-2.2,1.5-3.9,1.5-6.3c0-2.7,0.7-5.7,3-7.8c0.5-0.5-0.4-1.2-0.9-0.7
					c-4.5,4.1-2.7,9.8-4.8,14.5C964.1,67.5,965.3,67.7,965.6,67.1L965.6,67.1z"/>
			</g>
		</g>
		<g>
			<g>
				<path class="st16" d="M977.7,61.7c-3.2-2.4-4.1-5.8-4.6-9.1c-0.1-0.6-1.4-0.6-1.3,0c0.5,3.6,1.5,7.3,5,9.8
					C977.4,62.9,978.3,62.2,977.7,61.7L977.7,61.7z"/>
			</g>
		</g>
	</g>
</g>
</svg>
